<?xml version="1.0" encoding="UTF-8"?>
<svg version="1.1" xmlns="http://www.w3.org/2000/svg" width="637" height="198">
<path d="M0 0 C1.21274094 -0.00686325 2.42548187 -0.0137265 3.67497253 -0.02079773 C6.97264738 -0.03586942 10.26996392 -0.03758573 13.56765819 -0.03185534 C16.33331254 -0.0287446 19.09891681 -0.03487671 21.864564 -0.04089409 C28.39510407 -0.05489484 34.9255132 -0.05341522 41.45605469 -0.04199219 C48.1658511 -0.03051409 54.87524764 -0.0445913 61.5849914 -0.07138866 C67.37218196 -0.09362568 73.15924774 -0.10016517 78.94647795 -0.09431225 C82.39136155 -0.09096063 85.83598894 -0.09323679 89.28083611 -0.11056328 C93.1263249 -0.12551523 96.97094383 -0.11476378 100.81640625 -0.09765625 C101.93934082 -0.10732422 103.06227539 -0.11699219 104.21923828 -0.12695312 C115.69894005 -0.02053598 124.13048629 3.10125644 132.37915039 11.11499023 C140.98317357 20.52162751 141.92081732 31.97908261 141.87695312 44.21630859 C141.88266786 45.57923437 141.88963636 46.94215537 141.89775085 48.30506897 C141.91557531 51.97872196 141.91453435 55.65213471 141.90880847 59.32581782 C141.90570113 62.40462165 141.9118261 65.48338035 141.91784722 68.56217772 C141.93185552 75.83104137 141.93036195 83.0997874 141.91894531 90.36865234 C141.90746635 97.84187537 141.92154429 105.31473942 141.94834179 112.78791517 C141.97056491 119.22902527 141.97712138 125.67002324 141.97126538 132.11116892 C141.9679105 135.94728201 141.97021218 139.78316506 141.9875164 143.61924553 C142.00308972 147.22854639 141.99891666 150.83731917 141.98021126 154.44659996 C141.97482433 156.3850527 141.98895989 158.32352977 142.00390625 160.26193237 C141.90505008 172.11014514 139.1283215 180.68001126 130.84008789 189.23999023 C121.77250804 197.52949392 113.13586512 198.70403191 101.19458008 198.69458008 C99.36149544 198.70465591 99.36149544 198.70465591 97.49137878 198.7149353 C94.15430785 198.73063283 90.81748589 198.73728771 87.48039532 198.73856688 C85.39024236 198.73999333 83.30011511 198.74427229 81.20996857 198.74956131 C73.90290178 198.7680397 66.59590773 198.77623488 59.28881836 198.7746582 C52.50241727 198.77345812 45.71633488 198.79453965 38.93001437 198.82614553 C33.08345013 198.85239384 27.23698942 198.8630219 21.39036679 198.86174738 C17.90741578 198.86124016 14.42474814 198.8667891 10.94185638 198.88810349 C7.05071347 198.91126807 3.1599992 198.90191284 -0.73120117 198.88989258 C-1.86819962 198.90113159 -3.00519806 198.91237061 -4.176651 198.9239502 C-14.83197242 198.84069105 -24.29255439 196.06183386 -32.30053711 188.79467773 C-41.19409391 179.71349315 -42.12216474 168.42007376 -42.02880859 156.25708008 C-42.03260215 154.88238474 -42.03811066 153.50769325 -42.04518127 152.13301086 C-42.05901578 148.43672079 -42.04805307 144.74090246 -42.03147006 141.04463911 C-42.01750574 137.1562724 -42.02409227 133.26792994 -42.02760315 129.37954712 C-42.03029572 122.85508724 -42.01691005 116.33081233 -41.99365234 109.80639648 C-41.96702623 102.2854396 -41.96530615 94.76479129 -41.97704071 87.24380338 C-41.98785342 79.97690444 -41.98160554 72.71011606 -41.96748543 65.44322586 C-41.96175808 62.3645221 -41.96178243 59.28590013 -41.96655083 56.20719528 C-41.97135524 52.57740185 -41.96107732 48.94794251 -41.93959618 45.31821251 C-41.93146182 43.36649033 -41.93784083 41.41472418 -41.9447937 39.46299744 C-41.85271883 28.46751686 -39.96139035 18.84001634 -32.52709961 10.40405273 C-22.80156137 1.75353081 -12.68875128 -0.05077545 0 0 Z M-27.52709961 18.40405273 C-32.13523278 25.72566111 -32.09186081 32.99816269 -32.02880859 41.42578125 C-32.03259834 42.82298322 -32.03810376 44.22018142 -32.04518127 45.61737061 C-32.05906668 49.38807758 -32.04801593 53.15832473 -32.03147006 56.92900586 C-32.01755086 60.88772713 -32.02408732 64.84642356 -32.02760315 68.80516052 C-32.03029955 75.45009717 -32.01687782 82.09485258 -31.99365234 88.73974609 C-31.96703518 96.40780005 -31.96530109 104.07555137 -31.97704071 111.74363571 C-31.98784161 119.14028113 -31.98161402 126.53681772 -31.96748543 133.93345451 C-31.96174674 137.07242359 -31.96179153 140.21131248 -31.96655083 143.35028267 C-31.97134381 147.04979403 -31.96112369 150.74897643 -31.93959618 154.44842529 C-31.93143152 156.44350109 -31.93785445 158.43862012 -31.9447937 160.43370056 C-31.88205041 168.04308714 -31.46272464 174.20499415 -26.98413086 180.61108398 C-26.44143555 181.14088867 -25.89874023 181.67069336 -25.33959961 182.21655273 C-24.54489258 183.0305957 -24.54489258 183.0305957 -23.73413086 183.86108398 C-16.60286636 188.84665828 -9.3935477 188.84081978 -0.99584961 188.80810547 C0.24092529 188.81496872 1.4777002 188.82183197 2.75195312 188.8289032 C6.12399758 188.8440083 9.49548642 188.84568222 12.86752319 188.83996081 C15.69052225 188.83685764 18.51347192 188.84297375 21.33646393 188.84899956 C27.99917255 188.86301566 34.66175285 188.86150732 41.32446289 188.85009766 C48.18196359 188.83861343 55.03907332 188.85270354 61.89652252 188.87949413 C67.80082184 188.90169128 73.70499879 188.90827968 79.60933685 188.90241772 C83.12848789 188.89905719 86.64738825 188.90140275 90.16650391 188.91866875 C94.09170722 188.93708934 98.01643384 188.92290945 101.94165039 188.90576172 C103.09721436 188.91542969 104.25277832 188.92509766 105.44335938 188.93505859 C113.13454755 188.86479397 118.3018936 187.6982467 124.46118164 182.83374023 C131.69265631 174.34369033 131.91400026 164.56178983 131.86108398 153.83544922 C131.86515819 152.49883599 131.8705048 151.16222614 131.87701416 149.82562256 C131.89059155 146.22440023 131.88542954 142.62343818 131.8758769 139.02221179 C131.86823181 135.23746255 131.87533914 131.45273421 131.8800354 127.66798401 C131.88547826 121.31572506 131.87833941 114.9635711 131.86401367 108.61132812 C131.8476829 101.28580489 131.85298461 93.96053214 131.86949289 86.63501495 C131.88314141 80.32387518 131.88501123 74.01281046 131.87717688 67.70166069 C131.87251971 63.94166942 131.8718214 60.1817956 131.88178635 56.42181206 C131.89050327 52.88645166 131.88434888 49.35141187 131.86710358 45.81608582 C131.86129691 43.91304454 131.87011329 42.0099759 131.87948608 40.10694885 C131.81215096 30.94800987 130.81687385 22.78764668 124.30836391 15.89495087 C117.20384997 10.12414342 108.67181423 9.823616 99.9140625 9.88647461 C98.69810898 9.87946533 97.48215546 9.87245605 96.22935486 9.86523438 C92.92330573 9.85073645 89.61826986 9.85400497 86.31227946 9.86675072 C82.83582351 9.87695402 79.35940768 9.86746508 75.88294983 9.86120605 C70.04851608 9.85395175 64.21428562 9.8634597 58.37988281 9.88256836 C51.65412684 9.90434328 44.92885587 9.89727267 38.20311159 9.87526274 C32.40574773 9.85705731 26.60852908 9.85457508 20.81114584 9.86501741 C17.35851797 9.87122296 13.90611743 9.87216967 10.45350456 9.85887146 C6.60292871 9.84507322 2.75288775 9.86424639 -1.09765625 9.88647461 C-2.79284393 9.87432922 -2.79284393 9.87432922 -4.52227783 9.86193848 C-13.20552287 9.95450113 -21.35344558 11.87761847 -27.52709961 18.40405273 Z " fill="#F8F9FB" transform="translate(43.527099609375,-0.404052734375)"/>
<path d="M0 0 C1.13050781 -0.03996094 2.26101562 -0.07992187 3.42578125 -0.12109375 C7.81636799 0.63082709 8.94042429 1.93961582 11.6875 5.4375 C13.6891099 8.67553643 15.4806121 12.00555536 17.25 15.375 C20.18821705 20.89981803 23.09544571 26.30720128 26.6875 31.4375 C30.5493686 28.03870615 32.66774955 24.21487687 35.0625 19.75 C43.94370309 3.60003128 43.94370309 3.60003128 48.6875 0.4375 C51.3515625 0.20703125 51.3515625 0.20703125 54.3125 0.25 C55.29476562 0.25644531 56.27703125 0.26289062 57.2890625 0.26953125 C59.6875 0.4375 59.6875 0.4375 60.6875 1.4375 C61.60456074 8.99892531 58.95213489 13.4677055 55.0625 19.8125 C54.54042969 20.69421875 54.01835937 21.5759375 53.48046875 22.484375 C51.89984448 25.14606822 50.29566569 27.79237502 48.6875 30.4375 C47.61605619 32.22067489 46.54570796 34.00450863 45.4765625 35.7890625 C44.01829417 38.21950972 42.57833458 40.59325331 40.95068359 42.91552734 C39.47323861 45.34112828 39.47323861 45.34112828 39.83374023 47.93579102 C40.76260988 50.65758891 41.91216096 52.971964 43.34765625 55.46484375 C43.89067383 56.41560791 44.43369141 57.36637207 44.99316406 58.34594727 C45.86279785 59.84532837 45.86279785 59.84532837 46.75 61.375 C47.33620117 62.40101318 47.92240234 63.42702637 48.52636719 64.48413086 C51.08550385 68.95769048 53.66740174 73.41666692 56.29296875 77.8515625 C56.66220459 78.48070557 57.03144043 79.10984863 57.41186523 79.75805664 C58.36475884 81.37645604 59.33030695 82.98738637 60.296875 84.59765625 C61.79883717 87.66486551 62.55483519 90.02138102 62.6875 93.4375 C61.55078125 95.28125 61.55078125 95.28125 59.6875 96.4375 C57.41796875 96.90625 57.41796875 96.90625 54.875 96.9375 C54.04355469 96.9684375 53.21210938 96.999375 52.35546875 97.03125 C47.42387098 95.93373483 44.36959863 92.39387881 41.53759766 88.4230957 C40.57926025 86.78473755 40.57926025 86.78473755 39.6015625 85.11328125 C39.25491547 84.52580612 38.90826843 83.93833099 38.55111694 83.33305359 C37.82838857 82.10332734 37.11103348 80.87042827 36.39892578 79.63452148 C35.3055051 77.73786659 34.19531443 75.85184883 33.08203125 73.96679688 C27.6875 64.75145274 27.6875 64.75145274 27.6875 62.4375 C24.9479924 64.89380522 23.31526406 67.5785282 21.5078125 70.76953125 C20.90839844 71.81560547 20.30898437 72.86167969 19.69140625 73.93945312 C18.44573596 76.1342672 17.20093426 78.32957447 15.95703125 80.52539062 C8.09813361 94.2321832 8.09813361 94.2321832 3.6875 96.4375 C2.04494209 96.55864921 0.39697522 96.61290767 -1.25 96.625 C-2.12527344 96.63917969 -3.00054687 96.65335937 -3.90234375 96.66796875 C-6.3125 96.4375 -6.3125 96.4375 -9.3125 94.4375 C-10.33041396 89.32479578 -8.35920069 86.33368075 -5.65283203 82.21923828 C-5.12802246 81.44563965 -4.60321289 80.67204102 -4.0625 79.875 C-2.96798027 78.19620526 -1.87695898 76.51512556 -0.7890625 74.83203125 C-0.2209082 73.95627441 0.34724609 73.08051758 0.93261719 72.17822266 C3.90857964 67.53045492 6.76052307 62.81677644 9.5625 58.0625 C10.10422852 57.17747803 10.64595703 56.29245605 11.20410156 55.38061523 C11.69104492 54.54602783 12.17798828 53.71144043 12.6796875 52.8515625 C13.33493408 51.75255615 13.33493408 51.75255615 14.00341797 50.63134766 C14.95217219 47.58869762 14.10554559 46.22908721 12.6875 43.4375 C12.36201172 42.78869873 12.03652344 42.13989746 11.70117188 41.47143555 C10.53457252 39.35329451 9.3661153 37.23648829 8.1875 35.125 C7.75187744 34.33826904 7.31625488 33.55153809 6.86743164 32.7409668 C3.43468799 26.60751132 -0.23467643 20.64953194 -4.17578125 14.82885742 C-6.84471536 10.74584316 -8.15805191 7.44779617 -8.3125 2.4375 C-5.56441738 -0.31058262 -3.83475466 0.0738288 0 0 Z " fill="#FBFBFC" transform="translate(80.3125,51.5625)"/>
<path d="M0 0 C0.75539063 0.226875 1.51078125 0.45375 2.2890625 0.6875 C6.37544499 1.72551999 8.04385127 1.42909505 11.9140625 -0.3125 C17.39518632 -0.9472625 21.40412143 -0.76127846 25.9140625 2.6875 C26.9040625 3.3475 27.8940625 4.0075 28.9140625 4.6875 C29.38714844 4.3265625 29.86023438 3.965625 30.34765625 3.59375 C35.56469265 -0.06732818 39.5653894 -1.3843539 45.9140625 -0.3125 C50.63284938 1.37914058 53.11989067 3.54798618 55.9140625 7.6875 C57.09381894 11.22676932 57.07617597 14.44535449 57.08203125 18.12890625 C57.08702385 19.21412819 57.08702385 19.21412819 57.09211731 20.3212738 C57.09717423 21.8485348 57.09952602 23.37580681 57.09936523 24.90307617 C57.10155764 27.24481214 57.11974198 29.58608137 57.13867188 31.92773438 C57.14160482 33.41145672 57.14359028 34.8951813 57.14453125 36.37890625 C57.15171677 37.08100723 57.15890228 37.78310822 57.16630554 38.50648499 C57.14289614 43.45866636 57.14289614 43.45866636 54.9140625 45.6875 C50.86144963 46.03240322 49.36652074 45.98913882 45.9140625 43.6875 C45.51342773 40.86181641 45.51342773 40.86181641 45.47265625 37.2890625 C45.44623047 36.00515625 45.41980469 34.72125 45.39257812 33.3984375 C45.37768878 32.0364711 45.3640296 30.67449073 45.3515625 29.3125 C45.32016194 26.65835949 45.2745116 24.00549271 45.22265625 21.3515625 C45.21032959 20.17029785 45.19800293 18.9890332 45.18530273 17.77197266 C44.92742596 14.83946579 44.44597322 13.16098094 42.9140625 10.6875 C38.52143504 10.28181556 38.52143504 10.28181556 34.74462891 12.30249023 C32.3733159 15.39202835 32.40305503 17.22963828 32.375 21.09765625 C32.35179687 22.33451172 32.32859375 23.57136719 32.3046875 24.84570312 C32.29953125 26.13412109 32.294375 27.42253906 32.2890625 28.75 C32.26359135 31.3034828 32.23012083 33.85690212 32.1875 36.41015625 C32.18153809 37.54203369 32.17557617 38.67391113 32.16943359 39.84008789 C31.9140625 42.6875 31.9140625 42.6875 29.9140625 45.6875 C23.7890625 46.125 23.7890625 46.125 20.9140625 44.6875 C19.67179475 41.29323305 19.72804202 37.82393189 19.6328125 34.2421875 C19.59542969 33.00082031 19.55804688 31.75945313 19.51953125 30.48046875 C19.4490086 27.86068273 19.37869734 25.24089102 19.30859375 22.62109375 C19.27121094 21.38230469 19.23382813 20.14351562 19.1953125 18.8671875 C19.16501953 17.73007324 19.13472656 16.59295898 19.10351562 15.42138672 C19.09255899 12.72423479 19.09255899 12.72423479 17.9140625 10.6875 C12.9934798 10.22023145 12.9934798 10.22023145 8.71118164 12.30249023 C6.37867182 15.39803275 6.41645381 17.24711096 6.41015625 21.09765625 C6.39146484 22.33451172 6.37277344 23.57136719 6.35351562 24.84570312 C6.35287109 26.13412109 6.35222656 27.42253906 6.3515625 28.75 C6.34264766 31.3034658 6.32111721 33.85692812 6.28515625 36.41015625 C6.28443115 37.54203369 6.28370605 38.67391113 6.28295898 39.84008789 C5.9140625 42.6875 5.9140625 42.6875 4.58227539 44.56030273 C2.01435261 46.29542632 -0.07684727 46.00761598 -3.0859375 45.6875 C-7.36794709 41.40549041 -6.2113942 32.45481374 -6.2253418 26.62988281 C-6.22058838 25.70014648 -6.21583496 24.77041016 -6.2109375 23.8125 C-6.20682861 22.84666992 -6.20271973 21.88083984 -6.19848633 20.88574219 C-6.07558454 5.22303295 -6.07558454 5.22303295 -5.0859375 1.6875 C-2.0859375 -0.3125 -2.0859375 -0.3125 0 0 Z " fill="#F9FAFC" transform="translate(388.0859375,31.3125)"/>
<path d="M0 0 C1.21300781 0.04382813 2.42601562 0.08765625 3.67578125 0.1328125 C11.04012231 0.47883874 11.04012231 0.47883874 14 1 C16 4 16 4 15.625 6.6875 C15.41875 7.450625 15.2125 8.21375 15 9 C13.68 9.33 12.36 9.66 11 10 C11.3403125 11.485 11.3403125 11.485 11.6875 13 C12.30996403 17.52201813 11.29945898 21.08270738 9 25 C6.65571685 27.52509223 4.09616685 29.45191657 1 31 C-1.2072923 31.07092842 -3.41667452 31.08415025 -5.625 31.0625 C-6.81351562 31.05347656 -8.00203125 31.04445312 -9.2265625 31.03515625 C-10.14179688 31.02355469 -11.05703125 31.01195312 -12 31 C-12.33 31.66 -12.66 32.32 -13 33 C-11.77023437 33.03738281 -10.54046875 33.07476562 -9.2734375 33.11328125 C-7.64059599 33.17897028 -6.00778482 33.24541659 -4.375 33.3125 C-3.56675781 33.33505859 -2.75851562 33.35761719 -1.92578125 33.38085938 C4.27774304 33.65825274 8.62707926 34.87686039 13.375 39.125 C15.66092873 43.16933545 16.01736636 46.46456522 15 51 C12.06455825 56.39374456 7.833834 59.22310802 2 61 C-0.75227194 61.30580799 -3.19939616 61.47817628 -5.9375 61.4375 C-6.6389917 61.43137695 -7.3404834 61.42525391 -8.06323242 61.41894531 C-14.83020094 61.21448142 -18.82981329 59.67484504 -24 55.3125 C-25.60718118 51.59589353 -25.55225022 47.97903361 -25 44 C-23.5 40.9375 -23.5 40.9375 -22 39 C-22.66 38.01 -23.32 37.02 -24 36 C-24.36817958 31.12162059 -23.59582177 27.57468906 -22 23 C-22.33 22.34 -22.66 21.68 -23 21 C-23.61957385 15.44414927 -23.65154983 10.22558975 -20.44921875 5.47265625 C-14.79927337 -0.26866291 -7.55420473 -0.52097964 0 0 Z M-10.9375 10.0625 C-12.6140629 13.11976176 -12.36528977 15.5906288 -12 19 C-11.01951062 21.06402685 -11.01951062 21.06402685 -9 22 C-5.38418138 22.53852618 -3.65888511 22.42236225 -0.5625 20.4375 C1.34287189 17.97332719 1.34287189 17.97332719 0.875 14.375 C0.29259286 10.95457945 0.29259286 10.95457945 -2 9 C-6.6422434 8.55130827 -6.6422434 8.55130827 -10.9375 10.0625 Z M-12.78125 44.328125 C-14.20142408 46.09876851 -14.20142408 46.09876851 -15 49 C-13.90341037 50.61217461 -13.90341037 50.61217461 -12 52 C-8.90508469 52.47722466 -8.90508469 52.47722466 -5.5 52.375 C-4.3553125 52.38273437 -3.210625 52.39046875 -2.03125 52.3984375 C0.97246222 52.24213576 0.97246222 52.24213576 2.92578125 50.64453125 C4.28441735 48.94766126 4.28441735 48.94766126 3.6875 46.3125 C3.3471875 45.1678125 3.3471875 45.1678125 3 44 C-0.04940673 42.98353109 -2.30369903 42.80155324 -5.5 42.75 C-6.93859375 42.71132812 -6.93859375 42.71132812 -8.40625 42.671875 C-11.01806215 42.78601586 -11.01806215 42.78601586 -12.78125 44.328125 Z " fill="#FAFBFC" transform="translate(456,126)"/>
<path d="M0 0 C1.91015625 0.23046875 1.91015625 0.23046875 3.91015625 2.23046875 C4.18007531 4.9188626 3.99752982 7.52188811 3.91015625 10.23046875 C4.65177002 10.2147583 5.39338379 10.19904785 6.1574707 10.18286133 C9.51245521 10.12056161 12.86731811 10.08149368 16.22265625 10.04296875 C17.38990234 10.01783203 18.55714844 9.99269531 19.75976562 9.96679688 C20.87802734 9.95712891 21.99628906 9.94746094 23.1484375 9.9375 C24.18009033 9.92178955 25.21174316 9.9060791 26.2746582 9.88989258 C28.91015625 10.23046875 28.91015625 10.23046875 30.74755859 11.21972656 C32.64835594 14.50720387 32.31578442 18.0022858 32.2734375 21.6953125 C32.27418526 22.93988976 32.27418526 22.93988976 32.27494812 24.20960999 C32.27260836 25.96390172 32.26288558 27.71819686 32.24633789 29.47241211 C32.2227751 32.15444053 32.22577386 34.8354727 32.23242188 37.51757812 C32.22684391 39.22266217 32.21973329 40.92774202 32.2109375 42.6328125 C32.21230461 43.83453346 32.21230461 43.83453346 32.21369934 45.06053162 C32.12006158 52.43605133 32.12006158 52.43605133 29.91015625 55.23046875 C26.41015625 56.10546875 26.41015625 56.10546875 22.91015625 56.23046875 C20.06955949 53.38987199 20.44727744 50.48734073 20.28515625 46.66796875 C20.22823608 45.54950562 20.22823608 45.54950562 20.17016602 44.40844727 C19.79832597 36.34685387 19.8423532 28.29903181 19.91015625 20.23046875 C14.63015625 20.23046875 9.35015625 20.23046875 3.91015625 20.23046875 C4.24015625 28.48046875 4.57015625 36.73046875 4.91015625 45.23046875 C8.65751497 46.3391045 8.65751497 46.3391045 11.59765625 46.23046875 C12.36078125 46.23046875 13.12390625 46.23046875 13.91015625 46.23046875 C14.91015625 47.23046875 14.91015625 47.23046875 15.16015625 50.10546875 C14.91015625 53.23046875 14.91015625 53.23046875 13.73046875 54.90234375 C10.066472 57.5756461 5.2318981 56.69305989 0.91015625 56.23046875 C-3.40924963 54.52070392 -5.04751681 52.33480513 -7.08984375 48.23046875 C-7.43041992 45.0925293 -7.43041992 45.0925293 -7.3828125 41.6171875 C-7.37314453 40.37001953 -7.36347656 39.12285156 -7.35351562 37.83789062 C-7.32837891 36.54431641 -7.30324219 35.25074219 -7.27734375 33.91796875 C-7.26380859 32.60505859 -7.25027344 31.29214844 -7.23632812 29.93945312 C-7.20101818 26.70270798 -7.15169655 23.4667977 -7.08984375 20.23046875 C-9.39984375 19.90046875 -11.70984375 19.57046875 -14.08984375 19.23046875 C-14.08984375 16.92046875 -14.08984375 14.61046875 -14.08984375 12.23046875 C-12.10984375 11.57046875 -10.12984375 10.91046875 -8.08984375 10.23046875 C-8.02925781 9.59238281 -7.96867187 8.95429688 -7.90625 8.296875 C-7.82246094 7.47058594 -7.73867188 6.64429688 -7.65234375 5.79296875 C-7.57113281 4.96925781 -7.48992187 4.14554688 -7.40625 3.296875 C-6.7406405 -1.05013026 -3.83036312 0.07646823 0 0 Z " fill="#F8F9FB" transform="translate(506.08984375,20.76953125)"/>
<path d="M0 0 C3.06740683 -0.4230906 5.0390459 -0.67050591 8 0 C12.99386145 4.20473712 15.78385331 11.07220796 18.703125 16.77734375 C19.80420574 19.13008533 19.80420574 19.13008533 22 20 C22.2475 19.15050781 22.495 18.30101562 22.75 17.42578125 C24.10337175 13.71669679 25.9083906 10.51058232 28 7.1875 C28.35578125 6.60291016 28.7115625 6.01832031 29.078125 5.41601562 C31.74017857 1.12991071 31.74017857 1.12991071 34 0 C39.42307692 -0.46153846 39.42307692 -0.46153846 41.875 1.5 C42.24625 1.995 42.6175 2.49 43 3 C40.30459506 9.88825706 36.64173423 16.14158919 32.46484375 22.2421875 C32.00207031 22.92539063 31.53929687 23.60859375 31.0625 24.3125 C30.64097656 24.90675781 30.21945313 25.50101563 29.78515625 26.11328125 C28.62867532 28.89228767 29.04160895 30.12883684 30 33 C31.49561272 35.89320747 33.17262409 38.66209679 34.875 41.4375 C43.10618679 55.01777216 43.10618679 55.01777216 42.75 58.3125 C42 60 42 60 41 61 C37.51487784 61.39603661 35.59706424 61.37352803 32.58984375 59.4921875 C29.27540704 56.30272955 27.42487286 52.86091478 25.3125 48.8125 C22.99248114 43.62314913 22.99248114 43.62314913 19 40 C18.7525 40.85078125 18.505 41.7015625 18.25 42.578125 C16.90061915 46.27205508 15.09480252 49.44840908 13 52.75 C12.64421875 53.32621094 12.2884375 53.90242188 11.921875 54.49609375 C10.42341351 56.89475039 9.00643874 58.99356126 7 61 C0.67741935 61.33870968 0.67741935 61.33870968 -2 60 C-1.52920073 54.1338411 0.98944961 49.91977468 3.875 44.9375 C4.54595703 43.75317383 4.54595703 43.75317383 5.23046875 42.54492188 C5.66746094 41.77599609 6.10445312 41.00707031 6.5546875 40.21484375 C6.97331055 39.47733887 7.39193359 38.73983398 7.82324219 37.97998047 C9 36 9 36 10.9453125 33.31640625 C12.27829889 30.9779617 12.27829889 30.9779617 11.46484375 28.15625 C9.73451777 24.42797428 7.73941221 20.9816528 5.5625 17.5 C-0.12737852 8.31079977 -0.12737852 8.31079977 -2 4 C-1.1875 1.625 -1.1875 1.625 0 0 Z " fill="#F9FAFB" transform="translate(210,111)"/>
<path d="M0 0 C3.0625 0.3125 3.0625 0.3125 4.72192383 1.56762695 C6.35847745 3.69773964 6.47976198 4.87928788 6.57421875 7.54296875 C6.60966797 8.34541016 6.64511719 9.14785156 6.68164062 9.97460938 C6.70419922 10.80798828 6.72675781 11.64136719 6.75 12.5 C6.80124023 13.7674707 6.80124023 13.7674707 6.85351562 15.06054688 C6.93591471 17.14406649 7.00088645 19.22826216 7.0625 21.3125 C7.61292969 20.99023438 8.16335938 20.66796875 8.73046875 20.3359375 C13.47262201 18.25479151 19.34367564 18.40622521 24.23046875 20.03515625 C28.69376546 22.3857624 31.076478 25.28449724 32.62011719 30.02490234 C33.61424358 35.1656111 33.28858212 40.52448103 33.30273438 45.74902344 C33.31249878 47.93722725 33.34357471 50.12451402 33.375 52.3125 C33.38152505 53.70051527 33.38677748 55.08853723 33.390625 56.4765625 C33.40464355 58.37075928 33.40464355 58.37075928 33.41894531 60.30322266 C33.30131836 61.29628418 33.18369141 62.2893457 33.0625 63.3125 C29.61004176 65.61413882 28.11511287 65.65740322 24.0625 65.3125 C21.32999774 62.57999774 21.78192623 60.98985854 21.71875 57.16796875 C21.68910156 55.93369141 21.65945313 54.69941406 21.62890625 53.42773438 C21.60699219 52.13158203 21.58507812 50.83542969 21.5625 49.5 C21.51902609 46.95166149 21.46726355 44.40344765 21.40625 41.85546875 C21.37821289 40.1542688 21.37821289 40.1542688 21.34960938 38.41870117 C21.06476619 35.33701765 20.36721394 33.10064243 19.0625 30.3125 C14.8241035 29.89697093 12.78579872 29.74677871 9.36401367 32.4230957 C6.61313094 35.87665432 6.43724416 37.49429476 6.42578125 41.85546875 C6.40580078 43.09361328 6.38582031 44.33175781 6.36523438 45.60742188 C6.36845703 46.89197266 6.37167969 48.17652344 6.375 49.5 C6.35847652 52.0560559 6.33414798 54.61207723 6.30078125 57.16796875 C6.30118408 58.29871826 6.30158691 59.42946777 6.30200195 60.59448242 C6.0625 63.3125 6.0625 63.3125 4.0625 65.3125 C0.5625 65.5625 0.5625 65.5625 -2.9375 65.3125 C-5.39560625 62.85439375 -5.23692201 62.05373909 -5.38671875 58.66015625 C-5.43078857 57.67208984 -5.4748584 56.68402344 -5.52026367 55.66601562 C-5.57210815 54.03696289 -5.57210815 54.03696289 -5.625 52.375 C-5.66407471 51.25158203 -5.70314941 50.12816406 -5.7434082 48.97070312 C-6.02662641 38.74452748 -5.88149442 28.53740204 -5.625 18.3125 C-5.6080307 17.52980743 -5.5910614 16.74711487 -5.57357788 15.94070435 C-5.52238771 13.70999082 -5.45711682 11.48018081 -5.38671875 9.25 C-5.34893311 7.95964844 -5.31114746 6.66929688 -5.2722168 5.33984375 C-4.82086003 1.2575506 -4.09609182 0.43575445 0 0 Z " fill="#FBFCFD" transform="translate(301.9375,106.6875)"/>
<path d="M0 0 C4.80372907 4.67731515 5.03000356 9.39513434 5.1328125 15.828125 C5.13545088 17.63541662 5.13271242 19.44272291 5.125 21.25 C5.13080078 22.58611328 5.13080078 22.58611328 5.13671875 23.94921875 C5.12790589 30.02127669 4.71417426 35.97100272 4 42 C-0.60273874 42.88514207 -2.89103558 43.12532642 -7 41 C-7.58652344 41.30421875 -8.17304688 41.6084375 -8.77734375 41.921875 C-12.91956887 43.93110898 -17.50215073 43.42371044 -22 43 C-26.24892853 41.48252552 -28.68972873 39.89098319 -31 36 C-32.73436191 30.79691428 -32.76981912 26.66794144 -30.5 21.75 C-24.53835974 15.19219572 -18.1833088 14.50916544 -9.5625 14.078125 C-8.716875 14.05234375 -7.87125 14.0265625 -7 14 C-7.60183749 11.97954558 -8.27306096 9.97888961 -9 8 C-12.45300716 6.27349642 -16.28861638 7.34921919 -20 8 C-20.928125 8.37125 -21.85625 8.7425 -22.8125 9.125 C-25.36712644 10.14685058 -26.47356605 9.99252762 -29 9 C-29.33 8.67 -29.66 8.34 -30 8 C-29.9375 4.625 -29.9375 4.625 -29 1 C-20.72640801 -4.51572799 -8.54159782 -5.16054868 0 0 Z M-19 25 C-19.66 25.66 -20.32 26.32 -21 27 C-20.83557723 30.06991681 -20.83557723 30.06991681 -20 33 C-17.14675563 34.42662219 -15.16545451 34.31033868 -12 34 C-9.0296131 32.52383326 -9.0296131 32.52383326 -7 30 C-6.58190799 26.83151973 -6.58190799 26.83151973 -7 24 C-11.51988545 22.63033774 -14.60543089 23.42458843 -19 25 Z " fill="#FBFCFD" transform="translate(484,34)"/>
<path d="M0 0 C0.7528125 0.00128906 1.505625 0.00257812 2.28125 0.00390625 C5.15637694 0.56577085 6.41201076 1.37141704 8.5 3.4375 C8.98774719 6.29042053 8.98774719 6.29042053 8.9699707 9.80493164 C8.97289627 11.11961929 8.97582184 12.43430695 8.97883606 13.78883362 C8.96172308 15.22511476 8.94402411 16.66138902 8.92578125 18.09765625 C8.92085778 19.56830911 8.91755862 21.03896823 8.91581726 22.5096283 C8.90817691 25.5906884 8.88761488 28.67128401 8.85668945 31.75219727 C8.81707976 35.70573343 8.7990753 39.65896752 8.78938007 43.61267948 C8.77941618 47.37854617 8.75952166 51.14433877 8.73828125 54.91015625 C8.7348855 55.63109026 8.73148975 56.35202427 8.7279911 57.09480476 C8.71643813 59.12972899 8.69691594 61.16460331 8.67700195 63.19946289 C8.66715775 64.35845596 8.65731354 65.51744904 8.64717102 66.71156311 C8.5 69.4375 8.5 69.4375 7.5 71.4375 C3.0208651 72.93054497 -1.49215951 73.15826325 -5.9375 71.5625 C-7.5 70.4375 -7.5 70.4375 -8.5 68.4375 C-8.61194551 66.42689141 -8.65931014 64.41257066 -8.67700195 62.39892578 C-8.68983719 61.13065948 -8.70267242 59.86239319 -8.71589661 58.55569458 C-8.72406334 57.16473785 -8.7315072 55.77377671 -8.73828125 54.3828125 C-8.74235678 53.68355526 -8.7464323 52.98429802 -8.75063133 52.26385117 C-8.77148921 48.56343633 -8.78579263 44.86305856 -8.79516602 41.16259766 C-8.80623581 37.34016699 -8.8406421 33.51831764 -8.88033772 29.69609261 C-8.90647785 26.75697749 -8.91485542 23.81800151 -8.91844749 20.87878036 C-8.92331953 19.46975652 -8.93495126 18.06073913 -8.95348549 16.65182877 C-8.97781876 14.67964939 -8.97449785 12.70718757 -8.9699707 10.73486328 C-8.97583694 9.61282501 -8.98170319 8.49078674 -8.98774719 7.33474731 C-8.12129034 2.1879421 -5.12231283 -0.13156625 0 0 Z " fill="#F7F9FA" transform="translate(52.5,75.5625)"/>
<path d="M0 0 C4.59083 3.27916429 8.24046275 7.33685102 9.625 12.875 C9.87468909 16.22720883 10.02721232 19.53308879 9.625 22.875 C7.625 24.875 7.625 24.875 5.01123047 25.10205078 C3.93244629 25.09157715 2.85366211 25.08110352 1.7421875 25.0703125 C0.57558594 25.06386719 -0.59101563 25.05742187 -1.79296875 25.05078125 C-3.01628906 25.03402344 -4.23960937 25.01726562 -5.5 25 C-6.73105469 24.99097656 -7.96210938 24.98195312 -9.23046875 24.97265625 C-12.27883815 24.94902548 -15.32682382 24.91608054 -18.375 24.875 C-17.33053217 29.76516312 -17.33053217 29.76516312 -14.55859375 33.79296875 C-10.643577 35.7329681 -6.63916838 35.30558378 -2.375 34.875 C-0.6957762 34.24062656 0.97508418 33.58210678 2.625 32.875 C5.4375 33.25 5.4375 33.25 7.625 33.875 C8.4375 36.0625 8.4375 36.0625 8.625 38.875 C5.9061973 42.2929234 3.91130174 44.17149531 -0.375 44.875 C-18.32576202 46.06006113 -18.32576202 46.06006113 -24.375 40.875 C-30.57083054 33.37478409 -31.23553412 25.26364787 -30.375 15.875 C-28.88747204 8.99282949 -26.15431621 4.91816137 -20.375 0.93359375 C-14.29151911 -2.28637367 -6.39847612 -2.13282537 0 0 Z M-18.375 12.875 C-18.375 13.865 -18.375 14.855 -18.375 15.875 C-12.765 15.875 -7.155 15.875 -1.375 15.875 C-1.705 13.895 -2.035 11.915 -2.375 9.875 C-8.70834017 5.65277322 -13.9824945 6.97257073 -18.375 12.875 Z " fill="#F8F9FB" transform="translate(504.375,127.125)"/>
<path d="M0 0 C4.52752885 2.59450923 7.35437569 5.55092883 9.00390625 10.61328125 C10.65436674 19.22244005 10.48099312 28.18176107 6.00390625 35.84765625 C2.8886779 39.87958521 -0.70441325 42.25563775 -5.5625 43.875 C-19.77913318 44.97692455 -19.77913318 44.97692455 -25.9453125 41.28515625 C-29.77494425 37.94579137 -31.9768631 33.63191069 -33.5625 28.875 C-34.76217117 11.19460034 -34.76217117 11.19460034 -29.5625 4.875 C-21.7535707 -3.40460449 -10.2057725 -4.70919176 0 0 Z M-18.5625 8.875 C-21.91596503 12.46799824 -22.47780027 15.37863804 -22.75 20.1875 C-22.48362238 25.42625983 -21.94879222 29.33027438 -18.375 33.3125 C-14.75949586 35.32111341 -12.64515368 35.45823624 -8.5625 34.875 C-5.03033757 32.91268754 -3.81525061 31.44943321 -2.1875 27.75 C-1.23130373 21.82158315 -1.45072416 16.41620192 -3.875 10.875 C-5.69701884 8.71557026 -6.8913211 7.76539297 -9.5625 6.875 C-13.43430591 6.875 -15.19695177 7.14907783 -18.5625 8.875 Z " fill="#F9FAFC" transform="translate(334.5625,33.125)"/>
<path d="M0 0 C3.43584297 3.09639825 4.54516045 6.72338157 5.00927734 11.23144531 C5.02884262 12.62551794 5.03151525 14.01990409 5.01953125 15.4140625 C5.02240143 16.155495 5.02527161 16.89692749 5.02822876 17.66082764 C5.03025936 19.2172523 5.02480011 20.77370308 5.01220703 22.33007812 C4.99604581 24.7180209 5.01213509 27.10429474 5.03125 29.4921875 C5.02926918 31.00781624 5.02542884 32.52344394 5.01953125 34.0390625 C5.02864029 35.1109079 5.02864029 35.1109079 5.03793335 36.20440674 C5.00927734 38.20800781 5.00927734 38.20800781 4.62109375 41.4609375 C1.37475851 43.625161 0.37807932 43.83663606 -3.37890625 43.4609375 C-4.36890625 42.8009375 -5.35890625 42.1409375 -6.37890625 41.4609375 C-6.91773438 41.78320312 -7.4565625 42.10546875 -8.01171875 42.4375 C-12.56246113 44.40498268 -17.52526095 43.9937339 -22.37890625 43.4609375 C-26.46056816 41.4559106 -28.97571412 39.28698276 -31.37890625 35.4609375 C-32.16099884 31.14639336 -32.33296906 26.57259653 -30.5 22.515625 C-27.07619047 18.01834383 -22.50198451 16.0475055 -17.0703125 15.02734375 C-13.19464033 14.51186026 -10.16115244 14.33394766 -6.37890625 15.4609375 C-6.97752367 13.10922619 -7.64814977 10.7749997 -8.37890625 8.4609375 C-11.4588097 6.92098577 -13.96633386 7.23716226 -17.37890625 7.4609375 C-18.57515625 7.9765625 -19.77140625 8.4921875 -21.00390625 9.0234375 C-24.52603801 10.52360473 -25.82787097 10.64461593 -29.37890625 9.4609375 C-30.19140625 7.2734375 -30.19140625 7.2734375 -30.37890625 4.4609375 C-23.57839145 -4.67725426 -9.56854449 -4.81513852 0 0 Z M-19.21484375 25.8125 C-20.84875218 28.12628979 -20.73348643 29.69521208 -20.37890625 32.4609375 C-18.45444329 34.80078513 -18.45444329 34.80078513 -15.06640625 34.8359375 C-10.77722591 34.39974967 -9.19500639 33.70371948 -6.37890625 30.4609375 C-5.96081424 27.29245723 -5.96081424 27.29245723 -6.37890625 24.4609375 C-8.14898339 24.37979644 -9.92012723 24.32168245 -11.69140625 24.2734375 C-12.67753906 24.23863281 -13.66367187 24.20382813 -14.6796875 24.16796875 C-17.3922365 24.23366636 -17.3922365 24.23366636 -19.21484375 25.8125 Z " fill="#FAFBFC" transform="translate(373.37890625,128.5390625)"/>
<path d="M0 0 C4.8001123 2.88614347 7.6590721 6.33274654 9.8125 11.5625 C11.55052236 21.200624 10.90222864 29.70461893 5.8125 38.1875 C0.49488124 43.21767991 -4.15930953 44.64707706 -11.5 44.875 C-18.34207197 44.64815056 -22.91986937 43.59619722 -28.01953125 39.0078125 C-33.03082355 33.20222315 -33.80553364 24.92682777 -33.30859375 17.5234375 C-32.2286593 11.08274737 -29.91383388 6.60315435 -25.0625 2.125 C-17.86351469 -2.79138021 -8.01654931 -3.66470826 0 0 Z M-18.5 10.375 C-22.27661636 15.58412602 -22.18004499 21.19026652 -21.5 27.375 C-20.32443191 30.72536905 -19.52521913 32.56947068 -16.75 34.75 C-12.26628227 35.99547715 -8.83409316 36.08651635 -4.6875 33.875 C-0.58115575 29.18203514 -0.26836282 24.17008866 -0.625 18.1875 C-1.21512318 13.87761161 -1.97177551 11.17948614 -5.5 8.375 C-10.48297803 6.7174822 -14.43767127 6.77693741 -18.5 10.375 Z " fill="#F9FAFC" transform="translate(577.5,32.625)"/>
<path d="M0 0 C0.680625 -0.309375 1.36125 -0.61875 2.0625 -0.9375 C6.39465275 -2.50444887 10.44474684 -2.58494423 15 -2 C19.88478796 0.35193495 22.36061943 3.30776787 25 8 C26.08951234 11.31797933 26.12902743 14.42413169 26.1328125 17.90234375 C26.13410156 19.03994141 26.13539063 20.17753906 26.13671875 21.34960938 C26.13285156 22.53361328 26.12898438 23.71761719 26.125 24.9375 C26.13080078 26.70770508 26.13080078 26.70770508 26.13671875 28.51367188 C26.13542969 29.65255859 26.13414062 30.79144531 26.1328125 31.96484375 C26.13168457 33.0024585 26.13055664 34.04007324 26.12939453 35.10913086 C26.00570267 37.87259378 25.75140166 40.33737281 25 43 C22.23749964 44.38125018 20.05268901 44.19079306 17 44 C13.49054558 40.49054558 13.8510779 36.56750848 13.71875 31.7734375 C13.68136719 30.5771875 13.64398438 29.3809375 13.60546875 28.1484375 C13.53493806 25.62500609 13.4646269 23.10156853 13.39453125 20.578125 C13.35714844 19.38445312 13.31976563 18.19078125 13.28125 16.9609375 C13.25095703 15.86571777 13.22066406 14.77049805 13.18945312 13.64208984 C13.17078065 11.02314719 13.17078065 11.02314719 12 9 C6.54595904 8.35310085 6.54595904 8.35310085 1.89770508 10.65551758 C-0.48811788 13.60303564 -0.49719186 15.14666555 -0.50390625 18.90234375 C-0.52259766 20.03994141 -0.54128906 21.17753906 -0.56054688 22.34960938 C-0.56119141 23.53361328 -0.56183594 24.71761719 -0.5625 25.9375 C-0.57145562 28.28003538 -0.59311591 30.62256467 -0.62890625 32.96484375 C-0.6299939 34.52126587 -0.6299939 34.52126587 -0.63110352 36.10913086 C-1.05783003 39.45318693 -1.94559656 41.34105889 -4 44 C-7.06652353 44.51108726 -8.9624692 44.62376449 -11.66699219 42.99780273 C-13.81706654 39.77544771 -13.38565613 36.27761232 -13.328125 32.53515625 C-13.32625183 31.70543808 -13.32437866 30.87571991 -13.32244873 30.02085876 C-13.31572831 28.26655051 -13.30181394 26.51225724 -13.28125 24.75805664 C-13.25015874 22.07619249 -13.24028417 19.39491698 -13.234375 16.71289062 C-13.2252019 15.00780536 -13.21482515 13.30272605 -13.203125 11.59765625 C-13.19887512 10.79650894 -13.19462524 9.99536163 -13.19024658 9.16993713 C-13.09783173 1.94796851 -13.09783173 1.94796851 -12 -1 C-7.65429709 -2.44856764 -4.27334122 -1.42444707 0 0 Z " fill="#F6F8FB" transform="translate(400,128)"/>
<path d="M0 0 C3 0.6875 3 0.6875 6 1.6875 C6.680625 1.378125 7.36125 1.06875 8.0625 0.75 C12.93118668 -1.01101433 18.15202553 -1.29364577 23.09765625 0.41015625 C27.60286718 2.77276155 29.99942625 5.61480987 31.55761719 10.39990234 C32.55174358 15.5406111 32.22608212 20.89948103 32.24023438 26.12402344 C32.24999878 28.31222725 32.28107471 30.49951402 32.3125 32.6875 C32.31902505 34.07551527 32.32427748 35.46353723 32.328125 36.8515625 C32.34214355 38.74575928 32.34214355 38.74575928 32.35644531 40.67822266 C32.23881836 41.67128418 32.12119141 42.6643457 32 43.6875 C28.54754176 45.98913882 27.05261287 46.03240322 23 45.6875 C19.43126956 42.11876956 19.85828621 37.42015232 19.71875 32.58203125 C19.68136719 31.43412109 19.64398438 30.28621094 19.60546875 29.10351562 C19.53481356 26.68946313 19.46450436 24.27540049 19.39453125 21.86132812 C19.35714844 20.71728516 19.31976563 19.57324219 19.28125 18.39453125 C19.25095703 17.3475708 19.22066406 16.30061035 19.18945312 15.22192383 C19.16165095 12.69472259 19.16165095 12.69472259 18 10.6875 C13.79521424 10.2752661 11.71749065 10.14809527 8.27734375 12.734375 C5.48108132 16.36040313 5.45443789 18.88340925 5.75 23.25 C5.79810088 24.67044839 5.8423325 26.09103276 5.8828125 27.51171875 C5.90762695 28.21345215 5.93244141 28.91518555 5.95800781 29.63818359 C6.01929005 32.62889916 5.84853189 35.58087302 5.625 38.5625 C5.55539063 39.50867188 5.48578125 40.45484375 5.4140625 41.4296875 C5 43.6875 5 43.6875 3 45.6875 C-1.05261287 46.03240322 -2.54754176 45.98913882 -6 43.6875 C-6.38095093 41.8659668 -6.38095093 41.8659668 -6.38818359 39.63671875 C-6.39764008 38.80245361 -6.40709656 37.96818848 -6.4168396 37.10864258 C-6.41076691 36.20654053 -6.40469421 35.30443848 -6.3984375 34.375 C-6.40130768 33.45033936 -6.40417786 32.52567871 -6.40713501 31.57299805 C-6.40917849 29.61604196 -6.40362882 27.65906557 -6.39111328 25.70214844 C-6.37506364 22.69940707 -6.39095237 19.69801179 -6.41015625 16.6953125 C-6.40817387 14.79687202 -6.4043303 12.89843237 -6.3984375 11 C-6.40451019 10.09789795 -6.41058289 9.1957959 -6.4168396 8.26635742 C-6.40738312 7.43209229 -6.39792664 6.59782715 -6.38818359 5.73828125 C-6.38579681 5.00262939 -6.38341003 4.26697754 -6.38095093 3.5090332 C-5.61652736 -0.14609089 -3.28179096 -0.34185323 0 0 Z " fill="#F9FBFC" transform="translate(237,31.3125)"/>
<path d="M0 0 C4.83862409 2.20599636 6.37973397 5.57529888 8.19458008 10.38183594 C9.75813562 16.31532875 9.53613603 22.29430559 9.44140625 28.390625 C9.44849609 29.70353516 9.45558594 31.01644531 9.46289062 32.36914062 C9.39919667 41.89873578 9.39919667 41.89873578 7.66821289 44.32641602 C5.10320364 46.06288626 3.01083441 45.77301097 0.00390625 45.453125 C-2.81863258 42.63058617 -2.94384849 39.97619118 -3.07788086 36.06884766 C-3.05991455 35.2597998 -3.04194824 34.45075195 -3.0234375 33.6171875 C-3.00506836 32.26753906 -3.00506836 32.26753906 -2.98632812 30.890625 C-2.95131685 29.02335714 -2.91228784 27.15616008 -2.86914062 25.2890625 C-2.80383999 19.91136283 -3.21036156 15.5372096 -4.99609375 10.453125 C-9.2352848 10.03751803 -11.27341022 9.88834475 -14.69677734 12.5637207 C-17.45018283 16.02374979 -17.6106854 17.62915853 -17.59765625 21.99609375 C-17.613125 23.23423828 -17.62859375 24.47238281 -17.64453125 25.74804688 C-17.63679687 27.03259766 -17.6290625 28.31714844 -17.62109375 29.640625 C-17.62109375 32.19664775 -17.63346295 34.75271039 -17.66015625 37.30859375 C-17.65169678 39.00471802 -17.65169678 39.00471802 -17.64306641 40.73510742 C-17.75956543 41.63205322 -17.87606445 42.52899902 -17.99609375 43.453125 C-20.99609375 45.453125 -20.99609375 45.453125 -24.62109375 45.140625 C-27.99609375 44.453125 -27.99609375 44.453125 -28.99609375 43.453125 C-29.09726295 40.36231035 -29.13577933 37.29429945 -29.12890625 34.203125 C-29.12986298 33.27467773 -29.1308197 32.34623047 -29.13180542 31.38964844 C-29.1324873 29.42252535 -29.13063247 27.45540004 -29.12646484 25.48828125 C-29.1211167 22.46609474 -29.12640957 19.44405685 -29.1328125 16.421875 C-29.13215172 14.51562467 -29.13087056 12.60937443 -29.12890625 10.703125 C-29.13093048 9.79272461 -29.13295471 8.88232422 -29.13504028 7.94433594 C-29.11104344 1.56807469 -29.11104344 1.56807469 -27.99609375 0.453125 C-20.81962316 0.21783088 -20.81962316 0.21783088 -17.80859375 1.078125 C-15.89120423 1.65500615 -15.89120423 1.65500615 -13.80859375 0.515625 C-9.21818909 -1.21852787 -4.74159478 -1.29906706 0 0 Z " fill="#F7F9FB" transform="translate(623.99609375,31.546875)"/>
<path d="M0 0 C0.95003906 -0.01675781 1.90007812 -0.03351562 2.87890625 -0.05078125 C5.4375 0.3125 5.4375 0.3125 7.265625 1.6015625 C9.15324086 4.35748165 8.62038056 7.08161009 8.4375 10.3125 C5.44218461 11.31093846 4.26494268 11.31982761 1.25 10.875 C-0.008125 10.689375 -1.26625 10.50375 -2.5625 10.3125 C-2.8925 13.2825 -3.2225 16.2525 -3.5625 19.3125 C-2.469375 19.27125 -1.37625 19.23 -0.25 19.1875 C3.4375 19.3125 3.4375 19.3125 6.4375 21.3125 C6.69410094 24.39171132 6.83181504 26.52386993 5.4375 29.3125 C2.4675 29.3125 -0.5025 29.3125 -3.5625 29.3125 C-3.55202637 30.3319873 -3.54155273 31.35147461 -3.53076172 32.40185547 C-3.49461273 36.17753602 -3.47161823 39.95320121 -3.45263672 43.72900391 C-3.44256746 45.36444672 -3.42891119 46.99987149 -3.41162109 48.63525391 C-3.38741295 50.9834437 -3.37602643 53.33139588 -3.3671875 55.6796875 C-3.35686493 56.41307343 -3.34654236 57.14645935 -3.33590698 57.90206909 C-3.33550632 59.70712697 -3.44037245 61.5115783 -3.5625 63.3125 C-5.5625 65.3125 -5.5625 65.3125 -9.0625 65.5625 C-12.5625 65.3125 -12.5625 65.3125 -14.5625 63.3125 C-14.73752995 60.73146694 -14.79412279 58.25941837 -14.7578125 55.6796875 C-14.75356766 54.55193405 -14.75356766 54.55193405 -14.74923706 53.40139771 C-14.73802874 50.99660422 -14.71292352 48.59218119 -14.6875 46.1875 C-14.67747102 44.55859912 -14.66834503 42.92969242 -14.66015625 41.30078125 C-14.63808735 37.30454444 -14.60355351 33.30858506 -14.5625 29.3125 C-15.531875 29.333125 -16.50125 29.35375 -17.5 29.375 C-20.5625 29.3125 -20.5625 29.3125 -21.5625 28.3125 C-21.60342937 25.97952567 -21.60491723 23.64544775 -21.5625 21.3125 C-19.5825 20.6525 -17.6025 19.9925 -15.5625 19.3125 C-15.46453125 18.58804687 -15.3665625 17.86359375 -15.265625 17.1171875 C-14.35075925 11.20210723 -13.53614502 6.87050458 -9.5625 2.3125 C-6.36437258 0.28305372 -3.75504704 0.01532672 0 0 Z " fill="#FBFCFD" transform="translate(294.5625,11.6875)"/>
<path d="M0 0 C1.36952673 2.73905345 1.12621361 4.97087332 1 8 C0.67 8.66 0.34 9.32 0 10 C-3.73487777 9.5020163 -5.81237635 9.12508244 -9 7 C-11.17861258 6.60998232 -11.17861258 6.60998232 -13.5 6.625 C-14.2734375 6.59664062 -15.046875 6.56828125 -15.84375 6.5390625 C-18.10170197 6.83928088 -18.10170197 6.83928088 -19.75 8.52734375 C-21.48553418 11.96044731 -21.5137191 15.17503788 -21.5 18.9375 C-21.52835937 19.64068359 -21.55671875 20.34386719 -21.5859375 21.06835938 C-21.60079565 25.03177155 -21.12575914 26.83664057 -18.6875 30.00390625 C-16.08965361 32.34781807 -16.08965361 32.34781807 -12.5 32 C-9.02108761 31.17797013 -9.02108761 31.17797013 -6.375 29.375 C-4 28 -4 28 -1.1875 28.3125 C-0.465625 28.539375 0.25625 28.76625 1 29 C1.375 32.1875 1.375 32.1875 1 36 C-3.07840944 40.26379168 -6.07009544 41.78780636 -11.8046875 42.203125 C-22.40129611 42.36490528 -22.40129611 42.36490528 -27 39 C-32.75082198 33.11847752 -34.29008446 27.86792521 -34.375 19.75 C-34.2540725 12.50857673 -33.66187512 5.66187512 -28.31640625 0.31640625 C-19.713566 -6.21435205 -8.88504386 -5.59428687 0 0 Z " fill="#F8F9FB" transform="translate(290,130)"/>
<path d="M0 0 C0.78246094 -0.01417969 1.56492187 -0.02835938 2.37109375 -0.04296875 C4.5625 0.1875 4.5625 0.1875 7.5625 2.1875 C8.03364738 4.9302508 7.74055784 7.38308897 7.5625 10.1875 C7.2325 10.5175 6.9025 10.8475 6.5625 11.1875 C5.325 11.105 4.0875 11.0225 2.8125 10.9375 C-0.71060122 10.89954918 -1.33821493 11.11567675 -4.375 13.3125 C-8.94446378 19.68205557 -7.75581662 28.90271777 -7.95507812 36.484375 C-7.98923828 37.4434375 -8.02339844 38.4025 -8.05859375 39.390625 C-8.0836499 40.26364258 -8.10870605 41.13666016 -8.13452148 42.03613281 C-8.4375 44.1875 -8.4375 44.1875 -10.4375 46.1875 C-14.49011287 46.53240322 -15.98504176 46.48913882 -19.4375 44.1875 C-19.71650915 41.08858738 -19.80908737 38.1922698 -19.765625 35.09375 C-19.76375183 34.1912854 -19.76187866 33.2888208 -19.75994873 32.35900879 C-19.75321992 30.44909985 -19.73928905 28.53920488 -19.71875 26.62939453 C-19.68762656 23.69941461 -19.67778351 20.76997249 -19.671875 17.83984375 C-19.66270396 15.98697258 -19.65232786 14.13410691 -19.640625 12.28125 C-19.63637512 11.40102173 -19.63212524 10.52079346 -19.62774658 9.6138916 C-19.55468483 3.42186966 -19.55468483 3.42186966 -18.4375 1.1875 C-14.4375 1.1875 -10.4375 1.1875 -6.4375 1.1875 C-4.0978331 0.01766655 -2.60358473 0.0213759 0 0 Z " fill="#F7F8FB" transform="translate(370.4375,30.8125)"/>
<path d="M0 0 C2.37046531 2.37046531 2.25183138 2.83404172 2.25878906 6.05078125 C2.26509338 6.88504639 2.27139771 7.71931152 2.27789307 8.57885742 C2.2738446 9.48095947 2.26979614 10.38306152 2.265625 11.3125 C2.26753845 12.23716064 2.2694519 13.16182129 2.27142334 14.11450195 C2.27278566 16.07145459 2.26908596 18.02841624 2.26074219 19.98535156 C2.25004334 22.9878359 2.26063591 25.98972187 2.2734375 28.9921875 C2.27211591 30.89062633 2.26955354 32.78906478 2.265625 34.6875 C2.26967346 35.58960205 2.27372192 36.4917041 2.27789307 37.42114258 C2.27158875 38.25540771 2.26528442 39.08967285 2.25878906 39.94921875 C2.25640228 41.05269653 2.25640228 41.05269653 2.25396729 42.1784668 C2 44 2 44 0 46 C-4.05261287 46.34490322 -5.54754176 46.30163882 -9 44 C-9.38095093 42.1784668 -9.38095093 42.1784668 -9.38818359 39.94921875 C-9.39764008 39.11495361 -9.40709656 38.28068848 -9.4168396 37.42114258 C-9.41076691 36.51904053 -9.40469421 35.61693848 -9.3984375 34.6875 C-9.40130768 33.76283936 -9.40417786 32.83817871 -9.40713501 31.88549805 C-9.40917849 29.92854196 -9.40362882 27.97156557 -9.39111328 26.01464844 C-9.37506364 23.01190707 -9.39095237 20.01051179 -9.41015625 17.0078125 C-9.40817387 15.10937202 -9.4043303 13.21093237 -9.3984375 11.3125 C-9.40451019 10.41039795 -9.41058289 9.5082959 -9.4168396 8.57885742 C-9.40738312 7.74459229 -9.39792664 6.91032715 -9.38818359 6.05078125 C-9.38579681 5.31512939 -9.38341003 4.57947754 -9.38095093 3.8215332 C-8.40224826 -0.85817559 -3.79383403 -0.32287949 0 0 Z " fill="#FBFCFD" transform="translate(219,31)"/>
<path d="M0 0 C0.71607422 -0.00322266 1.43214844 -0.00644531 2.16992188 -0.00976562 C5.90983562 0.02836139 8.95366126 0.10748405 12.0625 2.3125 C13.29434766 4.77619532 13.22982342 6.5019501 13.25 9.25 C13.26417969 10.12527344 13.27835938 11.00054687 13.29296875 11.90234375 C13.0625 14.3125 13.0625 14.3125 11.0625 17.3125 C9.13891602 17.68481445 9.13891602 17.68481445 6.81640625 17.67578125 C5.97916016 17.67513672 5.14191406 17.67449219 4.27929688 17.67382812 C2.96541992 17.6496582 2.96541992 17.6496582 1.625 17.625 C0.75294922 17.62822266 -0.11910156 17.63144531 -1.01757812 17.63476562 C-7.5367817 17.57964553 -7.5367817 17.57964553 -10.9375 15.3125 C-11.3359375 12.59765625 -11.3359375 12.59765625 -11.3125 9.375 C-11.32023437 8.31410156 -11.32796875 7.25320312 -11.3359375 6.16015625 C-10.9375 3.3125 -10.9375 3.3125 -9.91015625 1.453125 C-6.76805051 -0.36369654 -3.52312014 -0.07885229 0 0 Z " fill="#FB8288" transform="translate(51.9375,52.6875)"/>
<path d="M0 0 C5.05843729 -0.64234124 5.05843729 -0.64234124 8 0 C10.0625 2.1875 10.0625 2.1875 11 5 C10.76271993 8.4010144 10.430466 9.569534 8 12 C6.125 12.265625 6.125 12.265625 4 12.25 C3.29875 12.25515625 2.5975 12.2603125 1.875 12.265625 C0 12 0 12 -2 10 C-2.31537716 5.66356399 -2.44897847 3.67346771 0 0 Z " fill="#F8F9FB" transform="translate(528,15)"/>
<path d="M0 0 C3.5625 0.375 3.5625 0.375 5.5625 1.9375 C6.96913962 5.36618408 6.36787401 7.81793147 5.5625 11.375 C4.5625 12.375 4.5625 12.375 0.6875 12.6875 C-2.25895709 12.63989118 -3.12531641 12.62096283 -5.5 10.75 C-6.75606608 7.56796594 -6.35820253 5.63287048 -5.4375 2.375 C-3.4375 0.375 -3.4375 0.375 0 0 Z " fill="#F6F7FA" transform="translate(215.4375,14.625)"/>
<path d="M0 0 C0.391875 0.639375 0.78375 1.27875 1.1875 1.9375 C3.11225371 4.54862025 3.11225371 4.54862025 8 5 C8.33 16.22 8.66 27.44 9 39 C10.98 39.33 12.96 39.66 15 40 C16.49983085 37.0003383 16.23902055 33.88053039 16.31640625 30.5859375 C16.33718735 29.85629791 16.35796844 29.12665833 16.37937927 28.37490845 C16.44481917 26.04170237 16.50373368 23.70838279 16.5625 21.375 C16.60569053 19.79425905 16.64930499 18.21352961 16.69335938 16.6328125 C16.80049481 12.75532496 16.90177782 8.87772315 17 5 C20.3 4.67 23.6 4.34 27 4 C27 4.66 27 5.32 27 6 C24.03 6 21.06 6 18 6 C18.01047363 7.0194873 18.02094727 8.03897461 18.03173828 9.08935547 C18.06788727 12.86503602 18.09088177 16.64070121 18.10986328 20.41650391 C18.11993254 22.05194672 18.13358881 23.68737149 18.15087891 25.32275391 C18.17508705 27.6709437 18.18647357 30.01889588 18.1953125 32.3671875 C18.20563507 33.10057343 18.21595764 33.83395935 18.22659302 34.58956909 C18.22699368 36.39462697 18.12212755 38.1990783 18 40 C16 42 16 42 12.5 42.25 C9 42 9 42 7 40 C6.82497005 37.41896694 6.76837721 34.94691837 6.8046875 32.3671875 C6.80893234 31.23943405 6.80893234 31.23943405 6.81326294 30.08889771 C6.82447126 27.68410422 6.84957648 25.27968119 6.875 22.875 C6.88502898 21.24609912 6.89415497 19.61719242 6.90234375 17.98828125 C6.92441265 13.99204444 6.95894649 9.99608506 7 6 C5.5459375 6.0309375 5.5459375 6.0309375 4.0625 6.0625 C1 6 1 6 0 5 C-0.04063832 3.33382885 -0.042721 1.66611905 0 0 Z " fill="#EDF1F6" transform="translate(273,35)"/>
<path d="M0 0 C0.71607422 -0.00322266 1.43214844 -0.00644531 2.16992188 -0.00976562 C5.90983562 0.02836139 8.95366126 0.10748405 12.0625 2.3125 C13.32487731 4.83725462 13.16106404 6.62450466 13.125 9.4375 C13.11597656 10.34757812 13.10695313 11.25765625 13.09765625 12.1953125 C13.08605469 12.89398438 13.07445313 13.59265625 13.0625 14.3125 C12.7325 14.3125 12.4025 14.3125 12.0625 14.3125 C11.5675 9.3625 11.5675 9.3625 11.0625 4.3125 C8.47853321 4.23137546 5.89712432 4.17195252 3.3125 4.125 C2.58289062 4.09986328 1.85328125 4.07472656 1.1015625 4.04882812 C-2.11060725 4.00502581 -4.51490906 4.0985299 -7.40625 5.5625 C-9.22084272 7.63632025 -9.50885727 8.77569841 -9.6875 11.5 C-9.77 12.758125 -9.8525 14.01625 -9.9375 15.3125 C-10.2675 15.3125 -10.5975 15.3125 -10.9375 15.3125 C-11.01857583 13.37568839 -11.07672475 11.4379066 -11.125 9.5 C-11.15980469 8.42105469 -11.19460937 7.34210937 -11.23046875 6.23046875 C-10.9375 3.3125 -10.9375 3.3125 -9.921875 1.4453125 C-6.76893538 -0.35459398 -3.5259502 -0.07891563 0 0 Z " fill="#F6B4B5" transform="translate(51.9375,52.6875)"/>
<path d="M0 0 C1.21300781 0.04382813 2.42601562 0.08765625 3.67578125 0.1328125 C11.04012231 0.47883874 11.04012231 0.47883874 14 1 C16 4 16 4 15.625 6.6875 C15.41875 7.450625 15.2125 8.21375 15 9 C14.34 8.67 13.68 8.34 13 8 C13 6.35 13 4.7 13 3 C8.97972342 2.82471684 4.9604372 2.71881641 0.9375 2.625 C-0.19623047 2.57472656 -1.32996094 2.52445313 -2.49804688 2.47265625 C-9.96676877 2.30807106 -9.96676877 2.30807106 -16.18359375 6.0234375 C-16.94820923 6.85367432 -16.94820923 6.85367432 -17.72827148 7.70068359 C-18.14794189 8.12945801 -18.5676123 8.55823242 -19 9 C-19.66 9 -20.32 9 -21 9 C-21.20589721 16.56407533 -21.20589721 16.56407533 -20 24 C-22.05617098 22.3201574 -22.92006813 21.41190115 -23.43359375 18.765625 C-23.44248412 13.04022433 -23.17439735 8.24190782 -19 4 C-12.94264915 -0.15748928 -7.11615224 -0.49076912 0 0 Z " fill="#DDE2ED" transform="translate(456,126)"/>
<path d="M0 0 C4.74448436 0.0322754 8.58744862 0.43611674 13.046875 2.265625 C13.046875 2.925625 13.046875 3.585625 13.046875 4.265625 C13.706875 4.265625 14.366875 4.265625 15.046875 4.265625 C15.046875 4.925625 15.046875 5.585625 15.046875 6.265625 C9.106875 6.265625 3.166875 6.265625 -2.953125 6.265625 C-3.283125 4.945625 -3.613125 3.625625 -3.953125 2.265625 C-1.953125 0.265625 -1.953125 0.265625 0 0 Z " fill="#D96E73" transform="translate(46.953125,62.734375)"/>
<path d="M0 0 C2.45898655 -0.08076963 4.91533742 -0.14037143 7.375 -0.1875 C8.07367188 -0.21263672 8.77234375 -0.23777344 9.4921875 -0.26367188 C11.5234375 -0.29296875 11.5234375 -0.29296875 15 0 C15.66 0.99 16.32 1.98 17 3 C16.67 4.65 16.34 6.3 16 8 C9.73 8 3.46 8 -3 8 C-3 7.67 -3 7.34 -3 7 C2.94 7 8.88 7 15 7 C15 6.34 15 5.68 15 5 C14.34 5 13.68 5 13 5 C13 4.34 13 3.68 13 3 C12.195625 3.020625 11.39125 3.04125 10.5625 3.0625 C8 3 8 3 7 2 C4.67182036 1.63239269 2.3381615 1.29758419 0 1 C0 0.67 0 0.34 0 0 Z " fill="#EC8D90" transform="translate(47,62)"/>
<path d="M0 0 C0.66 0.33 1.32 0.66 2 1 C-2.62 5.62 -7.24 10.24 -12 15 C-12.33 14.34 -12.66 13.68 -13 13 C-9.2430054 7.45396035 -5.65370024 3.61836815 0 0 Z " fill="#E9ECF2" transform="translate(19,4)"/>
<path d="M0 0 C0.66 0.33 1.32 0.66 2 1 C0.71034824 2.37562854 -0.62689293 3.70766393 -2 5 C-2.66 5 -3.32 5 -4 5 C-5.485 10.445 -5.485 10.445 -7 16 C-7.66 16 -8.32 16 -9 16 C-7.60771405 9.2706179 -6.00208796 4.00139198 0 0 Z " fill="#EBF0F7" transform="translate(483,129)"/>
<path d="M0 0 C2.1640625 -0.29296875 2.1640625 -0.29296875 4.625 -0.1875 C5.44226562 -0.16042969 6.25953125 -0.13335937 7.1015625 -0.10546875 C8.04128906 -0.05326172 8.04128906 -0.05326172 9 0 C9.33 0.66 9.66 1.32 10 2 C5.915021 2.54466387 2.1274515 3 -2 3 C-1.34 2.01 -0.68 1.02 0 0 Z " fill="#EB7577" transform="translate(45,63)"/>
<path d="M0 0 C0.33 0.99 0.66 1.98 1 3 C1.66 3.33 2.32 3.66 3 4 C2.01 5.485 2.01 5.485 1 7 C1 7.99 1 8.98 1 10 C0.34 10 -0.32 10 -1 10 C-1.02689216 8.52093108 -1.04634621 7.04172517 -1.0625 5.5625 C-1.07410156 4.73878906 -1.08570313 3.91507813 -1.09765625 3.06640625 C-1 1 -1 1 0 0 Z " fill="#E5858A" transform="translate(43,59)"/>
</svg>
