<?xml version="1.0" encoding="UTF-8"?>
<svg version="1.1" xmlns="http://www.w3.org/2000/svg" width="187" height="198">
<path d="M0 0 C1.21274094 -0.00686325 2.42548187 -0.0137265 3.67497253 -0.02079773 C6.97264738 -0.03586942 10.26996392 -0.03758573 13.56765819 -0.03185534 C16.33331254 -0.0287446 19.09891681 -0.03487671 21.864564 -0.04089409 C28.39510407 -0.05489484 34.9255132 -0.05341522 41.45605469 -0.04199219 C48.1658511 -0.03051409 54.87524764 -0.0445913 61.5849914 -0.07138866 C67.37218196 -0.09362568 73.15924774 -0.10016517 78.94647795 -0.09431225 C82.39136155 -0.09096063 85.83598894 -0.09323679 89.28083611 -0.11056328 C93.1263249 -0.12551523 96.97094383 -0.11476378 100.81640625 -0.09765625 C101.93934082 -0.10732422 103.06227539 -0.11699219 104.21923828 -0.12695312 C115.69894005 -0.02053598 124.13048629 3.10125644 132.37915039 11.11499023 C140.98317357 20.52162751 141.92081732 31.97908261 141.87695312 44.21630859 C141.88266786 45.57923437 141.88963636 46.94215537 141.89775085 48.30506897 C141.91557531 51.97872196 141.91453435 55.65213471 141.90880847 59.32581782 C141.90570113 62.40462165 141.9118261 65.48338035 141.91784722 68.56217772 C141.93185552 75.83104137 141.93036195 83.0997874 141.91894531 90.36865234 C141.90746635 97.84187537 141.92154429 105.31473942 141.94834179 112.78791517 C141.97056491 119.22902527 141.97712138 125.67002324 141.97126538 132.11116892 C141.9679105 135.94728201 141.97021218 139.78316506 141.9875164 143.61924553 C142.00308972 147.22854639 141.99891666 150.83731917 141.98021126 154.44659996 C141.97482433 156.3850527 141.98895989 158.32352977 142.00390625 160.26193237 C141.90505008 172.11014514 139.1283215 180.68001126 130.84008789 189.23999023 C121.77250804 197.52949392 113.13586512 198.70403191 101.19458008 198.69458008 C99.36149544 198.70465591 99.36149544 198.70465591 97.49137878 198.7149353 C94.15430785 198.73063283 90.81748589 198.73728771 87.48039532 198.73856688 C85.39024236 198.73999333 83.30011511 198.74427229 81.20996857 198.74956131 C73.90290178 198.7680397 66.59590773 198.77623488 59.28881836 198.7746582 C52.50241727 198.77345812 45.71633488 198.79453965 38.93001437 198.82614553 C33.08345013 198.85239384 27.23698942 198.8630219 21.39036679 198.86174738 C17.90741578 198.86124016 14.42474814 198.8667891 10.94185638 198.88810349 C7.05071347 198.91126807 3.1599992 198.90191284 -0.73120117 198.88989258 C-1.86819962 198.90113159 -3.00519806 198.91237061 -4.176651 198.9239502 C-14.86550481 198.84042903 -24.75910384 196.06983803 -32.52709961 188.40405273 C-40.65162348 178.61769444 -41.97471263 169.03008539 -41.9152832 156.59765625 C-41.9193558 155.22340479 -41.92470152 153.84915661 -41.93121338 152.47491455 C-41.94481243 148.76613394 -41.93961893 145.05760557 -41.93007612 141.34882092 C-41.92243931 137.452425 -41.92953638 133.55604955 -41.93423462 129.65965271 C-41.93968117 123.11730098 -41.93253023 116.57505109 -41.91821289 110.03271484 C-41.90189529 102.48967651 -41.90717278 94.9468816 -41.92369211 87.40384918 C-41.93734662 80.90672885 -41.93920713 74.40968141 -41.9313761 67.91255134 C-41.92672041 64.04129073 -41.92601617 60.17014417 -41.93598557 56.29889107 C-41.94471071 52.65684354 -41.93853329 49.01510692 -41.9213028 45.37309265 C-41.91550326 43.41417355 -41.92430641 41.45522787 -41.9336853 39.49632263 C-41.85521374 28.4842401 -39.97307225 18.85327221 -32.52709961 10.40405273 C-22.80156137 1.75353081 -12.68875128 -0.05077545 0 0 Z M-27.52709961 18.40405273 C-32.13523278 25.72566111 -32.09186081 32.99816269 -32.02880859 41.42578125 C-32.03259834 42.82298322 -32.03810376 44.22018142 -32.04518127 45.61737061 C-32.05906668 49.38807758 -32.04801593 53.15832473 -32.03147006 56.92900586 C-32.01755086 60.88772713 -32.02408732 64.84642356 -32.02760315 68.80516052 C-32.03029955 75.45009717 -32.01687782 82.09485258 -31.99365234 88.73974609 C-31.96703518 96.40780005 -31.96530109 104.07555137 -31.97704071 111.74363571 C-31.98784161 119.14028113 -31.98161402 126.53681772 -31.96748543 133.93345451 C-31.96174674 137.07242359 -31.96179153 140.21131248 -31.96655083 143.35028267 C-31.97134381 147.04979403 -31.96112369 150.74897643 -31.93959618 154.44842529 C-31.93143152 156.44350109 -31.93785445 158.43862012 -31.9447937 160.43370056 C-31.87891847 168.42292261 -31.5444292 174.81587701 -26.21459961 181.15405273 C-20.19834452 186.19091746 -16.02899421 188.51542848 -8.24053955 188.55122375 C-7.16959045 188.55837906 -6.09864136 188.56553436 -4.99523926 188.57290649 C-3.82529419 188.5755954 -2.65534912 188.5782843 -1.44995117 188.58105469 C0.40433502 188.59091148 0.40433502 188.59091148 2.29608154 188.60096741 C6.39148197 188.62069587 10.48684326 188.63236538 14.58227539 188.64233398 C15.99491647 188.64638333 17.40755737 188.65050031 18.82019806 188.65468407 C25.45808926 188.67372537 32.09596942 188.68795856 38.73388267 188.69629604 C46.38376171 188.70606456 54.0333511 188.73237817 61.68312812 188.77279693 C67.60430635 188.80300361 73.52540175 188.81776921 79.44665551 188.82107705 C82.97931556 188.82342236 86.5116658 188.83231452 90.04424286 188.85753822 C93.98897977 188.88525093 97.93333851 188.88097386 101.87817383 188.87402344 C103.04002197 188.8868335 104.20187012 188.89964355 105.39892578 188.9128418 C113.11845536 188.86331158 118.27938673 187.71602227 124.46118164 182.83374023 C131.69265631 174.34369033 131.91400026 164.56178983 131.86108398 153.83544922 C131.86515819 152.49883599 131.8705048 151.16222614 131.87701416 149.82562256 C131.89059155 146.22440023 131.88542954 142.62343818 131.8758769 139.02221179 C131.86823181 135.23746255 131.87533914 131.45273421 131.8800354 127.66798401 C131.88547826 121.31572506 131.87833941 114.9635711 131.86401367 108.61132812 C131.8476829 101.28580489 131.85298461 93.96053214 131.86949289 86.63501495 C131.88314141 80.32387518 131.88501123 74.01281046 131.87717688 67.70166069 C131.87251971 63.94166942 131.8718214 60.1817956 131.88178635 56.42181206 C131.89050327 52.88645166 131.88434888 49.35141187 131.86710358 45.81608582 C131.86129691 43.91304454 131.87011329 42.0099759 131.87948608 40.10694885 C131.81215096 30.94800987 130.81687385 22.78764668 124.30836391 15.89495087 C117.20384997 10.12414342 108.67181423 9.823616 99.9140625 9.88647461 C98.69810898 9.87946533 97.48215546 9.87245605 96.22935486 9.86523438 C92.92330573 9.85073645 89.61826986 9.85400497 86.31227946 9.86675072 C82.83582351 9.87695402 79.35940768 9.86746508 75.88294983 9.86120605 C70.04851608 9.85395175 64.21428562 9.8634597 58.37988281 9.88256836 C51.65412684 9.90434328 44.92885587 9.89727267 38.20311159 9.87526274 C32.40574773 9.85705731 26.60852908 9.85457508 20.81114584 9.86501741 C17.35851797 9.87122296 13.90611743 9.87216967 10.45350456 9.85887146 C6.60292871 9.84507322 2.75288775 9.86424639 -1.09765625 9.88647461 C-2.79284393 9.87432922 -2.79284393 9.87432922 -4.52227783 9.86193848 C-13.20552287 9.95450113 -21.35344558 11.87761847 -27.52709961 18.40405273 Z " fill="#315492" transform="translate(43.527099609375,-0.404052734375)"/>
<path d="M0 0 C1.13953125 -0.04898438 2.2790625 -0.09796875 3.453125 -0.1484375 C7.8904476 0.55606632 8.9846755 1.8449877 11.75 5.375 C13.77282852 8.63360071 15.58588909 11.98355349 17.375 15.375 C18.32478809 17.14622645 19.27528756 18.91707165 20.2265625 20.6875 C20.66387695 21.50863281 21.10119141 22.32976562 21.55175781 23.17578125 C22.51180181 24.937818 23.53851251 26.663463 24.5859375 28.375 C25.75 30.375 25.75 30.375 25.75 32.375 C30.80978464 27.98489274 33.58368806 22.71740807 36.75 16.875 C42.82372654 5.66789544 42.82372654 5.66789544 47.75 1.375 C48.08 1.045 48.41 0.715 48.75 0.375 C50.58115883 0.27648829 52.41619933 0.24527371 54.25 0.25 C55.2503125 0.24742188 56.250625 0.24484375 57.28125 0.2421875 C59.75 0.375 59.75 0.375 60.75 1.375 C61.66706074 8.93642531 59.01463489 13.4052055 55.125 19.75 C54.60292969 20.63171875 54.08085937 21.5134375 53.54296875 22.421875 C51.96234448 25.08356822 50.35816569 27.72987502 48.75 30.375 C47.67855619 32.15817489 46.60820796 33.94200863 45.5390625 35.7265625 C44.08079417 38.15700972 42.64083458 40.53075331 41.01318359 42.85302734 C39.53573861 45.27862828 39.53573861 45.27862828 39.89624023 47.87329102 C40.82510988 50.59508891 41.97466096 52.909464 43.41015625 55.40234375 C43.95317383 56.35310791 44.49619141 57.30387207 45.05566406 58.28344727 C45.92529785 59.78282837 45.92529785 59.78282837 46.8125 61.3125 C47.39870117 62.33851318 47.98490234 63.36452637 48.58886719 64.42163086 C51.14800385 68.89519048 53.72990174 73.35416692 56.35546875 77.7890625 C56.72470459 78.41820557 57.09394043 79.04734863 57.47436523 79.69555664 C58.42725884 81.31395604 59.39280695 82.92488637 60.359375 84.53515625 C61.86133717 87.60236551 62.61733519 89.95888102 62.75 93.375 C61.61328125 95.21875 61.61328125 95.21875 59.75 96.375 C57.48046875 96.84375 57.48046875 96.84375 54.9375 96.875 C54.10605469 96.9059375 53.27460938 96.936875 52.41796875 96.96875 C47.59907165 95.89631609 44.89345619 93.06300243 42.21459961 89.10839844 C40.61902159 86.43751199 39.10971317 83.73399868 37.625 81 C37.11324219 80.07960938 36.60148437 79.15921875 36.07421875 78.2109375 C35.08091462 76.42350076 34.09211039 74.63355398 33.10839844 72.84082031 C31.35840829 69.66416674 29.55960558 66.51799916 27.75 63.375 C27.09 63.375 26.43 63.375 25.75 63.375 C25.27691406 64.21160156 24.80382812 65.04820313 24.31640625 65.91015625 C22.5360885 69.04974911 20.74113507 72.1807285 18.93945312 75.30810547 C18.14656802 76.6858898 17.35620027 78.06512588 16.56835938 79.44580078 C15.41002003 81.47001319 14.23795244 83.48568721 13.0625 85.5 C12.70679932 86.12656494 12.35109863 86.75312988 11.98461914 87.39868164 C9.72428319 91.23400843 7.54207527 94.00567885 3.75 96.375 C1.1796875 96.8359375 1.1796875 96.8359375 -1.375 96.75 C-2.22320312 96.73710937 -3.07140625 96.72421875 -3.9453125 96.7109375 C-6.25 96.375 -6.25 96.375 -9.25 94.375 C-8.88215415 87.8238406 -6.34463518 83.59700903 -2.875 78.125 C-1.79087756 76.35855697 -0.70756526 74.59161652 0.375 72.82421875 C2.05655832 70.1063172 3.74067889 67.39002187 5.42578125 64.67431641 C7.00951739 62.10546992 8.56901343 59.52322078 10.125 56.9375 C10.61919434 56.15149414 11.11338867 55.36548828 11.62255859 54.55566406 C12.06422363 53.81670898 12.50588867 53.07775391 12.9609375 52.31640625 C13.55334229 51.35263062 13.55334229 51.35263062 14.15771484 50.36938477 C15.24717297 46.70088377 13.03639565 43.92119278 11.34887695 40.70288086 C10.81738037 39.75807861 10.28588379 38.81327637 9.73828125 37.83984375 C9.14466797 36.78216797 8.55105469 35.72449219 7.93945312 34.63476562 C7.32005859 33.53841797 6.70066406 32.44207031 6.0625 31.3125 C5.46244141 30.24322266 4.86238281 29.17394531 4.24414062 28.07226562 C3.64408203 27.00556641 3.04402344 25.93886719 2.42578125 24.83984375 C1.82717285 23.77362793 1.22856445 22.70741211 0.61181641 21.60888672 C-0.65615602 19.4064788 -1.96305962 17.22613462 -3.30322266 15.06689453 C-3.95210449 14.0148584 -4.60098633 12.96282227 -5.26953125 11.87890625 C-6.16248901 10.47040405 -6.16248901 10.47040405 -7.07348633 9.03344727 C-8.44542385 5.93342078 -8.31997869 4.54516509 -7.25 1.375 C-5.38748319 -0.48751681 -2.4996451 0.07285961 0 0 Z " fill="#345795" transform="translate(80.25,51.625)"/>
<path d="M0 0 C1.21274094 -0.00686325 2.42548187 -0.0137265 3.67497253 -0.02079773 C6.97264738 -0.03586942 10.26996392 -0.03758573 13.56765819 -0.03185534 C16.33331254 -0.0287446 19.09891681 -0.03487671 21.864564 -0.04089409 C28.39510407 -0.05489484 34.9255132 -0.05341522 41.45605469 -0.04199219 C48.1658511 -0.03051409 54.87524764 -0.0445913 61.5849914 -0.07138866 C67.37218196 -0.09362568 73.15924774 -0.10016517 78.94647795 -0.09431225 C82.39136155 -0.09096063 85.83598894 -0.09323679 89.28083611 -0.11056328 C93.1263249 -0.12551523 96.97094383 -0.11476378 100.81640625 -0.09765625 C101.93934082 -0.10732422 103.06227539 -0.11699219 104.21923828 -0.12695312 C115.69894005 -0.02053598 124.13048629 3.10125644 132.37915039 11.11499023 C141.01158106 20.55268496 141.91945442 32.02176859 141.84521484 44.2956543 C141.84764799 45.66668981 141.85137236 47.03772354 141.85627747 48.40875244 C141.86561509 52.10275663 141.8563236 55.79649257 141.84294534 59.49047565 C141.83156126 63.36871145 141.83574346 67.24693538 141.83769226 71.12518311 C141.83857263 77.63126976 141.82754539 84.1372517 141.80908203 90.64331055 C141.78788272 98.15630325 141.78441363 105.66914309 141.79064399 113.18215966 C141.79634385 120.4276914 141.79068695 127.67316954 141.77947044 134.91869354 C141.77483633 137.99510442 141.7739454 141.0714824 141.77605629 144.14789581 C141.7779439 147.76937345 141.76979913 151.39069607 141.7539959 155.01213837 C141.74775192 156.96942672 141.75125325 158.92673861 141.75506592 160.8840332 C141.74798111 162.05581116 141.7408963 163.22758911 141.7335968 164.43487549 C141.7305175 165.95570929 141.7305175 165.95570929 141.72737598 167.507267 C141.44537835 170.71734585 140.59973898 173.39490099 139.47290039 176.40405273 C139.14290039 176.40405273 138.81290039 176.40405273 138.47290039 176.40405273 C138.47382218 175.65621678 138.47474398 174.90838083 138.4756937 174.13788319 C138.49777552 155.9435931 138.51432494 137.7493057 138.52471256 119.55500507 C138.52986942 110.75639172 138.53690053 101.9577873 138.54833984 93.15917969 C138.55830529 85.49055529 138.56475826 77.82193736 138.56698889 70.15330666 C138.56829282 66.0926322 138.5713587 62.03197628 138.57863045 57.97130775 C138.58541998 54.14893223 138.58751136 50.32658287 138.58600807 46.50420189 C138.58628308 45.10176323 138.5882708 43.6993237 138.59210587 42.29689026 C138.59708883 40.38061659 138.59528731 38.46432888 138.59315491 36.54804993 C138.5940767 35.47600469 138.59499849 34.40395945 138.59594822 33.29942799 C138.47931841 30.55507177 138.06109485 28.08057349 137.47290039 25.40405273 C137.47290039 24.74405273 137.47290039 24.08405273 137.47290039 23.40405273 C136.48290039 23.73405273 135.49290039 24.06405273 134.47290039 24.40405273 C134.14290039 21.76405273 133.81290039 19.12405273 133.47290039 16.40405273 C131.82290039 16.07405273 130.17290039 15.74405273 128.47290039 15.40405273 C128.47290039 16.72405273 128.47290039 18.04405273 128.47290039 19.40405273 C129.13290039 19.40405273 129.79290039 19.40405273 130.47290039 19.40405273 C130.47290039 20.06405273 130.47290039 20.72405273 130.47290039 21.40405273 C131.13290039 21.73405273 131.79290039 22.06405273 132.47290039 22.40405273 C131.81290039 22.40405273 131.15290039 22.40405273 130.47290039 22.40405273 C130.47290039 23.06405273 130.47290039 23.72405273 130.47290039 24.40405273 C131.13290039 24.40405273 131.79290039 24.40405273 132.47290039 24.40405273 C132.51960149 43.11022694 132.55487996 61.81638932 132.57652473 80.52260971 C132.58684148 89.20804543 132.60090941 97.89344494 132.6237793 106.57885742 C132.64370099 114.14822293 132.65661393 121.71756222 132.66107738 129.28695321 C132.66368683 133.29564169 132.66982843 137.30425516 132.6843605 141.31291962 C132.69792515 145.08524576 132.7021253 148.85746593 132.69911575 152.62981415 C132.69966642 154.01493912 132.70365056 155.40006761 132.71131134 156.78517151 C132.72125447 158.67550092 132.71767944 160.56588706 132.71340942 162.45623779 C132.71525301 163.51445614 132.7170966 164.57267448 132.71899605 165.66296005 C132.47187639 168.41545842 131.89102919 170.05972867 130.47290039 172.40405273 C130.47566577 171.68051888 130.47843115 170.95698503 130.48128033 170.21152592 C130.5476151 152.58332562 130.59721739 134.95515715 130.62833691 117.32685947 C130.64378717 108.80184501 130.66484138 100.27691401 130.69921875 91.75195312 C130.7291776 84.31914444 130.74848877 76.88639621 130.75516587 69.45352882 C130.75906718 65.52009114 130.76819712 61.58682639 130.79009056 57.65344429 C130.81055838 53.94590784 130.81671357 50.23861443 130.81222343 46.53102684 C130.81343328 44.5324327 130.82952127 42.5338646 130.84616089 40.53533936 C130.81712566 32.03610074 129.93727205 25.36198298 125.41040039 18.09155273 C118.06074546 11.36740035 109.4832391 10.81779202 99.9140625 10.88647461 C98.69810898 10.87946533 97.48215546 10.87245605 96.22935486 10.86523438 C92.92330573 10.85073645 89.61826986 10.85400497 86.31227946 10.86675072 C82.83582351 10.87695402 79.35940768 10.86746508 75.88294983 10.86120605 C70.04851608 10.85395175 64.21428562 10.8634597 58.37988281 10.88256836 C51.65412684 10.90434328 44.92885587 10.89727267 38.20311159 10.87526274 C32.40574773 10.85705731 26.60852908 10.85457508 20.81114584 10.86501741 C17.35851797 10.87122296 13.90611743 10.87216967 10.45350456 10.85887146 C6.60292871 10.84507322 2.75288775 10.86424639 -1.09765625 10.88647461 C-2.79284393 10.87432922 -2.79284393 10.87432922 -4.52227783 10.86193848 C-12.76159888 10.94976894 -18.92415059 12.50602852 -25.40209961 17.71655273 C-27.88921681 20.86202449 -29.1316841 23.65846374 -30.52709961 27.40405273 C-31.18709961 26.74405273 -31.84709961 26.08405273 -32.52709961 25.40405273 C-32.49422378 22.67535866 -31.9631219 20.10739093 -31.52709961 17.40405273 C-32.18709961 17.40405273 -32.84709961 17.40405273 -33.52709961 17.40405273 C-35.27559632 21.70804464 -36.90413571 26.05155864 -38.52709961 30.40405273 C-39.18709961 30.40405273 -39.84709961 30.40405273 -40.52709961 30.40405273 C-40.52709961 76.60405273 -40.52709961 122.80405273 -40.52709961 170.40405273 C-40.85709961 170.40405273 -41.18709961 170.40405273 -41.52709961 170.40405273 C-41.59729377 152.19266649 -41.65013866 133.98131553 -41.68253613 115.76982307 C-41.69798109 107.31321811 -41.7190251 98.85669737 -41.75341797 90.40014648 C-41.78339312 83.02629185 -41.80269183 75.65249824 -41.80936509 68.27858436 C-41.81326366 64.37697215 -41.82237593 60.47553449 -41.84428978 56.57397842 C-41.86478345 52.89516552 -41.87090766 49.21659765 -41.86642265 45.53773308 C-41.86763032 43.55722285 -41.88370462 41.57673878 -41.90036011 39.59629822 C-41.86234858 28.53438617 -40.00821441 18.89314931 -32.52709961 10.40405273 C-22.80156137 1.75353081 -12.68875128 -0.05077545 0 0 Z " fill="#6680B0" transform="translate(43.527099609375,-0.404052734375)"/>
<path d="M0 0 C2.875 0.5625 2.875 0.5625 6 2 C7.375 5.625 7.375 5.625 8 9 C8.66 9 9.32 9 10 9 C12.50783846 15.76359848 12.27454937 22.35635298 12.24291992 29.50341797 C12.24399418 30.86914155 12.24593499 32.23486468 12.24867249 33.60058594 C12.25350197 37.2949182 12.24588801 40.98912884 12.23571944 44.68344641 C12.22690246 48.56029453 12.22869713 52.43713925 12.2290802 56.31399536 C12.22814486 62.82539897 12.21948012 69.33675586 12.20581055 75.84814453 C12.19009968 83.3592798 12.1848121 90.87036391 12.1855461 98.38151443 C12.1862236 106.39911999 12.17926969 114.41670602 12.1700995 122.43430567 C12.16797583 124.73452359 12.16725935 127.03473832 12.16686058 129.33495712 C12.16584994 132.96128434 12.15969496 136.58756924 12.14969444 140.21388245 C12.14541855 142.16704881 12.14593765 144.12022386 12.14663696 146.07339478 C12.10230166 158.34218322 11.85701289 165.94505272 3.10546875 174.94921875 C-1.29085673 179.08540663 -5.23389407 181.24957498 -11 183 C-11 182.01 -11 181.02 -11 180 C-11.55202528 180.32434556 -12.10405056 180.64869112 -12.67280388 180.98286533 C-15.37712124 182.16482628 -17.28950723 182.25926263 -20.23513794 182.27415466 C-21.29478256 182.28412979 -22.35442719 182.29410492 -23.44618225 182.30438232 C-25.18236061 182.30537933 -25.18236061 182.30537933 -26.95361328 182.30639648 C-28.17683792 182.31472 -29.40006256 182.32304352 -30.66035461 182.33161926 C-34.01405805 182.35159264 -37.36751312 182.36236179 -40.72125483 182.36744571 C-42.81992702 182.37109308 -44.91857549 182.37733531 -47.01723862 182.3844471 C-54.34906814 182.40894272 -61.68082697 182.42199235 -69.01269531 182.42553711 C-75.82922328 182.42916573 -82.64529914 182.45901187 -89.46168911 182.50094169 C-95.32601196 182.53574023 -101.19018579 182.55108724 -107.05461109 182.55178314 C-110.5516226 182.55257315 -114.04817412 182.56118173 -117.54507828 182.58978081 C-121.45356609 182.62102996 -125.36141567 182.61185615 -129.27001953 182.59936523 C-130.41532639 182.61419952 -131.56063324 182.62903381 -132.74064636 182.64431763 C-139.3592116 182.5842921 -144.01248948 181.58859007 -149.77175713 178.26799107 C-152.02209452 176.91417183 -152.02209452 176.91417183 -154.71077156 175.95546627 C-157 175 -157 175 -158.14453125 173.125 C-158.36496094 172.42375 -158.58539063 171.7225 -158.8125 171 C-159.04582031 170.29875 -159.27914062 169.5975 -159.51953125 168.875 C-160 167 -160 167 -160 165 C-158 165 -158 165 -156.3125 166.1875 C-155 168 -155 168 -155.3125 170.6875 C-155.539375 171.450625 -155.76625 172.21375 -156 173 C-155.236875 172.938125 -154.47375 172.87625 -153.6875 172.8125 C-151 173 -151 173 -149.63671875 174.40234375 C-147.59177581 176.39848137 -145.8519902 176.93770505 -143.125 177.75 C-141.86042969 178.14445312 -141.86042969 178.14445312 -140.5703125 178.546875 C-137.68423771 179.0556663 -135.85583682 178.57774789 -133 178 C-131.36306874 177.91763779 -129.72330097 177.88210783 -128.08430481 177.88647461 C-126.63950996 177.88658035 -126.63950996 177.88658035 -125.16552734 177.88668823 C-123.59822876 177.89443771 -123.59822876 177.89443771 -121.99926758 177.90234375 C-120.88984299 177.90380402 -119.7804184 177.90526428 -118.63737488 177.9067688 C-116.23162706 177.91057092 -113.82588204 177.91668342 -111.42014503 177.92483521 C-107.61763067 177.93759023 -103.81515114 177.94411191 -100.01261902 177.94897461 C-91.94589605 177.96040445 -83.87920405 177.97961149 -75.8125 178 C-66.45627215 178.0236257 -57.10006284 178.04395615 -47.74381065 178.05593872 C-43.98900052 178.06244461 -40.23424 178.07495086 -36.47944641 178.08764648 C-34.190481 178.09127712 -31.90151512 178.09462908 -29.61254883 178.09765625 C-28.56161041 178.10282257 -27.510672 178.10798889 -26.42788696 178.11331177 C-24.99578133 178.11341751 -24.99578133 178.11341751 -23.53474426 178.11352539 C-22.70240674 178.115746 -21.87006922 178.11796661 -21.01250935 178.12025452 C-18.92852784 178.12804197 -18.92852784 178.12804197 -17 177 C-15.00039988 176.960008 -12.99952758 176.95653201 -11 177 C-11 176.34 -11 175.68 -11 175 C-10.01 175 -9.02 175 -8 175 C-8 174.34 -8 173.68 -8 173 C-7.34 173 -6.68 173 -6 173 C-5.938125 172.46375 -5.87625 171.9275 -5.8125 171.375 C-4.64524954 167.96303712 -2.30106778 165.75005662 0 163 C1.3049484 160.2875382 1.3049484 160.2875382 2 158 C2.66 158 3.32 158 4 158 C4.33 109.16 4.66 60.32 5 10 C4.34 10 3.68 10 3 10 C3 8.35 3 6.7 3 5 C2.34 5 1.68 5 1 5 C0.67 3.35 0.34 1.7 0 0 Z " fill="#315493" transform="translate(171,14)"/>
<path d="M0 0 C0.7528125 0.00128906 1.505625 0.00257812 2.28125 0.00390625 C5.15637694 0.56577085 6.41201076 1.37141704 8.5 3.4375 C8.98774719 6.29042053 8.98774719 6.29042053 8.9699707 9.80493164 C8.97289627 11.11961929 8.97582184 12.43430695 8.97883606 13.78883362 C8.96172308 15.22511476 8.94402411 16.66138902 8.92578125 18.09765625 C8.92085778 19.56830911 8.91755862 21.03896823 8.91581726 22.5096283 C8.90817691 25.5906884 8.88761488 28.67128401 8.85668945 31.75219727 C8.81707976 35.70573343 8.7990753 39.65896752 8.78938007 43.61267948 C8.77941618 47.37854617 8.75952166 51.14433877 8.73828125 54.91015625 C8.7348855 55.63109026 8.73148975 56.35202427 8.7279911 57.09480476 C8.71643813 59.12972899 8.69691594 61.16460331 8.67700195 63.19946289 C8.66715775 64.35845596 8.65731354 65.51744904 8.64717102 66.71156311 C8.5 69.4375 8.5 69.4375 7.5 71.4375 C3.0208651 72.93054497 -1.49215951 73.15826325 -5.9375 71.5625 C-7.5 70.4375 -7.5 70.4375 -8.5 68.4375 C-8.61194551 66.42689141 -8.65931014 64.41257066 -8.67700195 62.39892578 C-8.68983719 61.13065948 -8.70267242 59.86239319 -8.71589661 58.55569458 C-8.72406334 57.16473785 -8.7315072 55.77377671 -8.73828125 54.3828125 C-8.74235678 53.68355526 -8.7464323 52.98429802 -8.75063133 52.26385117 C-8.77148921 48.56343633 -8.78579263 44.86305856 -8.79516602 41.16259766 C-8.80623581 37.34016699 -8.8406421 33.51831764 -8.88033772 29.69609261 C-8.90647785 26.75697749 -8.91485542 23.81800151 -8.91844749 20.87878036 C-8.92331953 19.46975652 -8.93495126 18.06073913 -8.95348549 16.65182877 C-8.97781876 14.67964939 -8.97449785 12.70718757 -8.9699707 10.73486328 C-8.97583694 9.61282501 -8.98170319 8.49078674 -8.98774719 7.33474731 C-8.12129034 2.1879421 -5.12231283 -0.13156625 0 0 Z " fill="#345894" transform="translate(52.5,75.5625)"/>
<path d="M0 0 C16.23834304 -0.09366505 32.47659773 -0.16408732 48.71514606 -0.20724869 C56.25590894 -0.22782676 63.79650344 -0.25585562 71.3371582 -0.30175781 C77.91373142 -0.34177209 84.49018262 -0.36746734 91.06687421 -0.37635398 C94.54549761 -0.38154424 98.02377211 -0.39364208 101.5022831 -0.42292023 C105.39652403 -0.45542811 109.29043143 -0.4559501 113.18481445 -0.45410156 C114.32345947 -0.46848267 115.46210449 -0.48286377 116.63525391 -0.49768066 C128.17573024 -0.43866751 136.61245172 2.653355 144.90625 10.7109375 C153.53868067 20.14863223 154.44655403 31.61771586 154.37231445 43.89160156 C154.3747476 45.26263708 154.37847197 46.63367081 154.38337708 48.00469971 C154.3927147 51.6987039 154.38342321 55.39243983 154.37004495 59.08642292 C154.35866087 62.96465871 154.36284307 66.84288265 154.36479187 70.72113037 C154.36567224 77.22721703 154.354645 83.73319896 154.33618164 90.23925781 C154.31498233 97.75225052 154.31151324 105.26509035 154.3177436 112.77810693 C154.32344346 120.02363867 154.31778656 127.2691168 154.30657005 134.51464081 C154.30193594 137.59105169 154.30104501 140.66742966 154.3031559 143.74384308 C154.30504351 147.36532072 154.29689874 150.98664334 154.2810955 154.60808563 C154.27485153 156.56537398 154.27835286 158.52268587 154.28216553 160.47998047 C154.27508072 161.65175842 154.26799591 162.82353638 154.26069641 164.03082275 C154.25761711 165.55165655 154.25761711 165.55165655 154.25447559 167.10321426 C153.97247796 170.31329311 153.12683858 172.99084826 152 176 C151.67 176 151.34 176 151 176 C151.00092179 175.25216405 151.00184359 174.5043281 151.00279331 173.73383045 C151.02487513 155.53954037 151.04142455 137.34525296 151.05181217 119.15095234 C151.05696903 110.35233898 151.06400014 101.55373457 151.07543945 92.75512695 C151.0854049 85.08650255 151.09185787 77.41788463 151.09408849 69.74925393 C151.09539243 65.68857947 151.09845831 61.62792354 151.10573006 57.56725502 C151.11251959 53.7448795 151.11461097 49.92253013 151.11310768 46.10014915 C151.11338269 44.6977105 151.11537041 43.29527096 151.11920547 41.89283752 C151.12418844 39.97656386 151.12238692 38.06027615 151.12025452 36.14399719 C151.12117631 35.07195195 151.1220981 33.99990671 151.12304783 32.89537525 C151.00641802 30.15101903 150.58819446 27.67652075 150 25 C150 24.34 150 23.68 150 23 C149.01 23.33 148.02 23.66 147 24 C146.67 21.36 146.34 18.72 146 16 C144.35 15.67 142.7 15.34 141 15 C141 16.32 141 17.64 141 19 C141.66 19 142.32 19 143 19 C143 19.66 143 20.32 143 21 C143.66 21.33 144.32 21.66 145 22 C144.34 22 143.68 22 143 22 C143 22.66 143 23.32 143 24 C143.66 24 144.32 24 145 24 C145.0467011 42.7061742 145.08197957 61.41233659 145.10362434 80.11855698 C145.11394108 88.80399269 145.12800902 97.48939221 145.15087891 106.17480469 C145.1708006 113.74417019 145.18371354 121.31350948 145.18817699 128.88290048 C145.19078644 132.89158895 145.19692804 136.90020242 145.21146011 140.90886688 C145.22502476 144.68119303 145.22922491 148.45341319 145.22621536 152.22576141 C145.22676603 153.61088639 145.23075017 154.99601487 145.23841095 156.38111877 C145.24835408 158.27144818 145.24477905 160.16183432 145.24050903 162.05218506 C145.24235262 163.1104034 145.24419621 164.16862175 145.24609566 165.25890732 C144.998976 168.01140569 144.4181288 169.65567594 143 172 C143.00276538 171.27646615 143.00553076 170.5529323 143.00837994 169.80747318 C143.07471471 152.17927289 143.124317 134.55110441 143.15543652 116.92280674 C143.17088678 108.39779228 143.19194098 99.87286128 143.22631836 91.34790039 C143.25627721 83.9150917 143.27558838 76.48234348 143.28226548 69.04947609 C143.28616679 65.1160384 143.29529673 61.18277366 143.31719017 57.24939156 C143.33765799 53.5418551 143.34381318 49.83456169 143.33932304 46.12697411 C143.34053289 44.12837996 143.35662088 42.12981186 143.3732605 40.13128662 C143.34422527 31.632048 142.46437166 24.95793024 137.9375 17.6875 C134.05017846 14.13101434 129.95296322 12.63495873 125 11 C125 10.67 125 10.34 125 10 C127.64 10 130.28 10 133 10 C129.7 8.68 126.4 7.36 123 6 C123 5.34 123 4.68 123 4 C115.47152776 1.8041956 107.67213534 1.83899015 99.90234375 1.79467773 C98.81852921 1.78477814 97.73471466 1.77487854 96.61805725 1.76467896 C93.05789325 1.73324864 89.49771593 1.70837994 85.9375 1.68359375 C83.46028306 1.66300826 80.9830695 1.64201138 78.50585938 1.62062073 C72.00236767 1.56556481 65.49884514 1.51608315 58.99530029 1.46777344 C52.35230751 1.41743774 45.70936046 1.36181481 39.06640625 1.30664062 C26.04430913 1.19926075 13.02217397 1.0975917 0 1 C0 0.67 0 0.34 0 0 Z " fill="#8B9FBE" transform="translate(31,0)"/>
<path d="M0 0 C1.83581131 0.73098152 1.83581131 0.73098152 3.70870972 1.47673035 C9.69062467 3.45687028 15.40901487 3.41373983 21.66064453 3.37231445 C23.51843536 3.37779045 23.51843536 3.37779045 25.41375732 3.38337708 C28.78569242 3.39005981 32.15706861 3.38342049 35.52894831 3.37004495 C39.07039544 3.35865958 42.6118296 3.36284327 46.15328979 3.36479187 C52.09621941 3.36567239 58.03903442 3.35464344 63.98193359 3.33618164 C70.83994274 3.31499821 77.69778438 3.31150974 84.55581963 3.3177436 C91.17290515 3.32344902 97.78993206 3.31777899 104.40700912 3.30657005 C107.21465012 3.30194163 110.02225507 3.30104254 112.82989883 3.3031559 C116.75271025 3.30539885 120.67536407 3.29089196 124.59814453 3.2746582 C125.75573273 3.27713562 126.91332092 3.27961304 128.10598755 3.28216553 C133.79408916 3.24463008 138.63336123 2.93568396 144 1 C144 1.66 144 2.32 144 3 C143.34 3 142.68 3 142 3 C142 3.66 142 4.32 142 5 C141.01 5 140.02 5 139 5 C139 5.66 139 6.32 139 7 C132.5071544 8.93000713 126.60101618 9.29655528 119.84912109 9.29052734 C118.75853394 9.29724457 117.66794678 9.30396179 116.54431152 9.31088257 C112.95397326 9.32981346 109.36382251 9.33378467 105.7734375 9.3359375 C103.26250127 9.34237003 100.75156578 9.34909873 98.2406311 9.35610962 C92.9802327 9.368071 87.71988139 9.37187774 82.45947266 9.37060547 C77.08044575 9.36953922 71.70170684 9.38358116 66.32275391 9.41162109 C59.80361857 9.44511083 53.28474111 9.45871171 46.765522 9.45738602 C44.29301111 9.45973259 41.82049703 9.46850235 39.34803391 9.48405075 C12.04460763 9.63964412 12.04460763 9.63964412 3 5 C2.67 4.01 2.34 3.02 2 2 C1.34 2 0.68 2 0 2 C0 1.34 0 0.68 0 0 Z " fill="#3E5F9D" transform="translate(21,184)"/>
<path d="M0 0 C2 0 2 0 3.6875 1.1875 C5 3 5 3 4.6875 5.6875 C4.460625 6.450625 4.23375 7.21375 4 8 C4.763125 7.938125 5.52625 7.87625 6.3125 7.8125 C9 8 9 8 10.36328125 9.40234375 C12.40822419 11.39848137 14.1480098 11.93770505 16.875 12.75 C17.71804687 13.01296875 18.56109375 13.2759375 19.4296875 13.546875 C22.31576229 14.0556663 24.14416318 13.57774789 27 13 C28.63693126 12.91763779 30.27669903 12.88210783 31.91569519 12.88647461 C33.36049004 12.88658035 33.36049004 12.88658035 34.83447266 12.88668823 C36.40177124 12.89443771 36.40177124 12.89443771 38.00073242 12.90234375 C39.11015701 12.90380402 40.2195816 12.90526428 41.36262512 12.9067688 C43.76837294 12.91057092 46.17411796 12.91668342 48.57985497 12.92483521 C52.38236933 12.93759023 56.18484886 12.94411191 59.98738098 12.94897461 C68.05410395 12.96040445 76.12079595 12.97961149 84.1875 13 C93.54372785 13.0236257 102.89993716 13.04395615 112.25618935 13.05593872 C116.01099948 13.06244461 119.76576 13.07495086 123.52055359 13.08764648 C125.809519 13.09127712 128.09848488 13.09462908 130.38745117 13.09765625 C131.43838959 13.10282257 132.489328 13.10798889 133.57211304 13.11331177 C135.00421867 13.11341751 135.00421867 13.11341751 136.46525574 13.11352539 C137.29759326 13.115746 138.12993078 13.11796661 138.98749065 13.12025452 C141.07147216 13.12804197 141.07147216 13.12804197 143 12 C144.99960012 11.960008 147.00047242 11.95653201 149 12 C149 11.34 149 10.68 149 10 C149.99 10 150.98 10 152 10 C152 9.34 152 8.68 152 8 C152.66 8 153.32 8 154 8 C154 7.34 154 6.68 154 6 C158.95 5.01 158.95 5.01 164 4 C162.73058503 7.91402949 161.48832306 9.79072873 158 12 C157.01 11.505 157.01 11.505 156 11 C156 11.66 156 12.32 156 13 C147.92959383 16.52911816 141.01307179 17.58394301 132.25170898 17.53344727 C130.41533875 17.54637062 130.41533875 17.54637062 128.54187012 17.55955505 C125.21723159 17.57823302 121.89359989 17.57915795 118.56898761 17.57023358 C115.78080783 17.56508557 112.99271537 17.57244655 110.2045446 17.57970566 C103.62269326 17.59663994 97.04107415 17.59320306 90.45922852 17.57641602 C83.6942042 17.55948382 76.92982468 17.57535834 70.16487068 17.6076389 C64.3300978 17.63441451 58.49552466 17.64158995 52.66069657 17.63312382 C49.18730687 17.62821977 45.71430511 17.63027228 42.24096489 17.65091133 C38.36668904 17.6728366 34.49317949 17.65377983 30.61889648 17.63110352 C29.48458694 17.64279572 28.3502774 17.65448792 27.18159485 17.66653442 C20.59751663 17.58841086 15.96290367 16.56448548 10.23214817 13.26687527 C7.97803951 11.91475112 7.97803951 11.91475112 5.28879452 10.95559025 C3 10 3 10 1.85546875 8.125 C1.63503906 7.42375 1.41460937 6.7225 1.1875 6 C0.95417969 5.29875 0.72085937 4.5975 0.48046875 3.875 C0 2 0 2 0 0 Z " fill="#2C5190" transform="translate(11,179)"/>
<path d="M0 0 C0.66 0.33 1.32 0.66 2 1 C2 1.66 2 2.32 2 3 C4.00032373 4.00016187 5.83125748 4.49396008 8 5 C8 4.01 8 3.02 8 2 C8.66 2 9.32 2 10 2 C10.66 4.64 11.32 7.28 12 10 C12.33 8.35 12.66 6.7 13 5 C13.99 4.67 14.98 4.34 16 4 C16 5.65 16 7.3 16 9 C16.7425 9.0825 17.485 9.165 18.25 9.25 C22.68953736 10.46078292 24.52568279 13.25870185 26.95703125 17.05859375 C27.56933594 18.17363281 28.18164062 19.28867188 28.8125 20.4375 C29.43769531 21.54996094 30.06289062 22.66242188 30.70703125 23.80859375 C32.09244784 27.22818696 32.27004266 28.58713656 31 32 C28.54006058 34.45993942 27.64998115 34.34992473 24.25 34.4375 C22.98929688 34.49744141 22.98929688 34.49744141 21.703125 34.55859375 C16.8026189 33.54591691 14.12729886 30.67672537 11.43261719 26.66870117 C9.80708372 23.93551447 8.26579766 21.17046603 6.75 18.375 C5.70374424 16.48663594 4.65689504 14.59860052 3.609375 12.7109375 C3.15530273 11.87868652 2.70123047 11.04643555 2.23339844 10.18896484 C1.23295918 8.4134426 0.13046729 6.69570094 -1 5 C-0.625 2.3125 -0.625 2.3125 0 0 Z " fill="#2D4F8A" transform="translate(111,114)"/>
<path d="M0 0 C1.12598099 -0.00671722 2.25196198 -0.01343445 3.4120636 -0.02035522 C7.12989735 -0.03933353 10.84755052 -0.04325953 14.56542969 -0.04541016 C17.15606764 -0.0518387 19.74670487 -0.0585671 22.33734131 -0.06558228 C27.76772045 -0.07755501 33.19802825 -0.08134894 38.62841797 -0.08007812 C44.88485067 -0.07887821 51.14093757 -0.09995523 57.39728284 -0.13156545 C63.43717975 -0.16098327 69.47689055 -0.16805111 75.51686859 -0.16685867 C78.07641765 -0.169213 80.63596949 -0.17802694 83.19547272 -0.19352341 C86.78294715 -0.21320815 90.36954141 -0.20733431 93.95703125 -0.1953125 C95.00568863 -0.20655151 96.05434601 -0.21779053 97.13478088 -0.22937012 C103.93342332 -0.1717331 109.74730279 0.9186179 115.73730469 4.29052734 C116.06730469 4.95052734 116.39730469 5.61052734 116.73730469 6.29052734 C115.51004166 6.12976212 114.28277863 5.96899689 113.01832581 5.80335999 C107.09352676 5.14922922 101.19667832 5.11536639 95.2409668 5.08520508 C94.02045624 5.07530548 92.79994568 5.06540588 91.54244995 5.0552063 C88.22284626 5.02918211 84.90326451 5.00725369 81.58362269 4.98720431 C78.10427171 4.96520254 74.62496239 4.93788388 71.14564514 4.91114807 C64.56922264 4.86141168 57.99277677 4.8164029 51.41630894 4.77312571 C43.92407499 4.72358954 36.43188289 4.66873263 28.93968952 4.61344612 C13.53893333 4.49991892 -1.86186147 4.39301721 -17.26269531 4.29052734 C-17.26269531 3.63052734 -17.26269531 2.97052734 -17.26269531 2.29052734 C-11.53800821 -0.15744254 -6.11232964 -0.00524251 0 0 Z " fill="#315088" transform="translate(48.2626953125,4.70947265625)"/>
<path d="M0 0 C0.33 0 0.66 0 1 0 C1.33 48.18 1.66 96.36 2 146 C1.01 145.67 0.02 145.34 -1 145 C-2.22496416 141.90228126 -2.12804696 138.77657195 -2.13371277 135.47892761 C-2.13797775 134.35604843 -2.14224274 133.23316925 -2.14663696 132.07626343 C-2.14595718 130.23483261 -2.14595718 130.23483261 -2.14526367 128.35620117 C-2.14862228 127.05988266 -2.1519809 125.76356415 -2.15544128 124.42796326 C-2.16427124 120.87411972 -2.166619 117.32030027 -2.16725707 113.76644683 C-2.16796825 111.54451927 -2.17010389 109.32259781 -2.17275429 107.10067177 C-2.18200505 99.34437293 -2.18608959 91.58809128 -2.18530273 83.83178711 C-2.18470232 76.60978633 -2.19524776 69.38786034 -2.2110464 62.16587847 C-2.22413819 55.95936679 -2.22948593 49.7528795 -2.22884732 43.54635412 C-2.22859278 39.84224367 -2.2314199 36.13819967 -2.24202538 32.43410301 C-2.2535388 28.30001115 -2.24894951 24.16608592 -2.24291992 20.03198242 C-2.24853943 18.81043457 -2.25415894 17.58888672 -2.25994873 16.33032227 C-2.2383269 10.49847571 -2.01539635 5.49578889 0 0 Z " fill="#7387B5" transform="translate(11,27)"/>
<path d="M0 0 C0.71607422 -0.00322266 1.43214844 -0.00644531 2.16992188 -0.00976562 C5.90983562 0.02836139 8.95366126 0.10748405 12.0625 2.3125 C13.29434766 4.77619532 13.22982342 6.5019501 13.25 9.25 C13.26417969 10.12527344 13.27835938 11.00054687 13.29296875 11.90234375 C13.0625 14.3125 13.0625 14.3125 11.0625 17.3125 C9.13891602 17.68481445 9.13891602 17.68481445 6.81640625 17.67578125 C5.97916016 17.67513672 5.14191406 17.67449219 4.27929688 17.67382812 C2.96541992 17.6496582 2.96541992 17.6496582 1.625 17.625 C0.75294922 17.62822266 -0.11910156 17.63144531 -1.01757812 17.63476562 C-7.5367817 17.57964553 -7.5367817 17.57964553 -10.9375 15.3125 C-11.3359375 12.59765625 -11.3359375 12.59765625 -11.3125 9.375 C-11.32023437 8.31410156 -11.32796875 7.25320312 -11.3359375 6.16015625 C-10.9375 3.3125 -10.9375 3.3125 -9.91015625 1.453125 C-6.76805051 -0.36369654 -3.52312014 -0.07885229 0 0 Z " fill="#FB8288" transform="translate(51.9375,52.6875)"/>
<path d="M0 0 C0.33 1.32 0.66 2.64 1 4 C0.34 4 -0.32 4 -1 4 C-1 6.64 -1 9.28 -1 12 C-1.66 12 -2.32 12 -3 12 C-3 12.66 -3 13.32 -3 14 C-2.34 14 -1.68 14 -1 14 C-1 14.66 -1 15.32 -1 16 C-1.66 16 -2.32 16 -3 16 C-2.938125 16.721875 -2.87625 17.44375 -2.8125 18.1875 C-3.09597648 22.43964721 -4.85558045 24.89372777 -7.875 27.8125 C-10.42757056 29.23893649 -12.1197285 29.24002263 -15 29 C-15.33 31.31 -15.66 33.62 -16 36 C-16.99 36 -17.98 36 -19 36 C-18.814375 36.969375 -18.62875 37.93875 -18.4375 38.9375 C-18.293125 39.948125 -18.14875 40.95875 -18 42 C-18.495 42.495 -18.495 42.495 -19 43 C-16.69 43.33 -14.38 43.66 -12 44 C-11.67 43.01 -11.34 42.02 -11 41 C-9.68 41 -8.36 41 -7 41 C-6.87625 40.401875 -6.7525 39.80375 -6.625 39.1875 C-6 37 -6 37 -4 34 C-3.67 33.01 -3.34 32.02 -3 31 C-2.01 31 -1.02 31 0 31 C-0.33 29.68 -0.66 28.36 -1 27 C-0.01 27 0.98 27 2 27 C2.12375 26.05125 2.2475 25.1025 2.375 24.125 C3 21 3 21 5 19 C6.31747324 18.30251417 7.64914193 17.63040043 9 17 C7.29352583 21.81435451 4.77172018 26.05688524 2.1875 30.4375 C1.76146484 31.17548828 1.33542969 31.91347656 0.89648438 32.67382812 C-5.65771515 43.82885758 -5.65771515 43.82885758 -10 46 C-11.64255791 46.12114921 -13.29052478 46.17540767 -14.9375 46.1875 C-16.25041016 46.20876953 -16.25041016 46.20876953 -17.58984375 46.23046875 C-20 46 -20 46 -23 44 C-22.63790583 37.41165244 -20.04806242 33.12863236 -16.5625 27.625 C-15.47447434 25.86246417 -14.38724965 24.09943368 -13.30078125 22.3359375 C-12.75115723 21.45131836 -12.2015332 20.56669922 -11.63525391 19.65527344 C-9.11110841 15.55664602 -6.67867097 11.40567642 -4.25 7.25 C-3.4219436 5.83850142 -2.59382561 4.42703897 -1.765625 3.015625 C-0.89164063 1.52289063 -0.89164063 1.52289063 0 0 Z " fill="#395C99" transform="translate(94,102)"/>
<path d="M0 0 C0.33 0 0.66 0 1 0 C1.1875 2.375 1.1875 2.375 1 5 C0.01 5.66 -0.98 6.32 -2 7 C-2.33 7.66 -2.66 8.32 -3 9 C-3.99 10.485 -3.99 10.485 -5 12 C-5.33 12.99 -5.66 13.98 -6 15 C-6.99 15 -7.98 15 -9 15 C-8.67 16.32 -8.34 17.64 -8 19 C-8.99 19 -9.98 19 -11 19 C-11.33 21.31 -11.66 23.62 -12 26 C-12.66 26 -13.32 26 -14 26 C-14.33 26.99 -14.66 27.98 -15 29 C-16.32303717 29.3721042 -17.65737935 29.70630173 -19 30 C-19.33 30.66 -19.66 31.32 -20 32 C-22.97 32 -25.94 32 -29 32 C-28.34 31.34 -27.68 30.68 -27 30 C-27.32198966 26.90073181 -27.32198966 26.90073181 -28 24 C-27.01 23.67 -26.02 23.34 -25 23 C-24.731875 22.030625 -24.46375 21.06125 -24.1875 20.0625 C-23 17 -23 17 -20.0625 15.6875 C-19.051875 15.460625 -18.04125 15.23375 -17 15 C-16.01 14.67 -15.02 14.34 -14 14 C-13.855625 13.4225 -13.71125 12.845 -13.5625 12.25 C-12.79466977 9.17867907 -11.04058236 7.36970855 -9 5 C-7.68 5.33 -6.36 5.66 -5 6 C-4.195625 5.01 -3.39125 4.02 -2.5625 3 C-1.716875 2.01 -0.87125 1.02 0 0 Z " fill="#2A4B84" transform="translate(102,114)"/>
<path d="M0 0 C0.50471045 0.2115463 1.00942091 0.42309259 1.52942562 0.64104939 C8.23860275 3.19022127 14.37208856 3.44136915 21.49633789 3.43237305 C22.71684845 3.4425647 23.93735901 3.45275635 25.19485474 3.46325684 C28.51459271 3.4881341 31.83388946 3.50008661 35.15368199 3.50611091 C38.63307582 3.51554162 42.11234405 3.54174848 45.59165955 3.56611633 C52.16807983 3.60965662 58.74447555 3.63827989 65.32099575 3.66143972 C72.81327496 3.68855859 80.30542703 3.73246573 87.79761517 3.77772844 C103.19834459 3.87039589 118.599098 3.94215818 134 4 C134 4.66 134 5.32 134 6 C117.37996479 6.0467087 100.75995085 6.08198329 84.13986588 6.10362434 C76.42297421 6.11393948 68.70612331 6.12800433 60.98925781 6.15087891 C54.26369568 6.17080554 47.53816307 6.18371471 40.81257224 6.18817699 C37.25101044 6.19078561 33.6895331 6.19692189 30.12799835 6.21146011 C26.15334991 6.22755326 22.17878432 6.22798015 18.20410156 6.22705078 C16.43033142 6.23783661 16.43033142 6.23783661 14.62072754 6.24884033 C13.53821716 6.246091 12.45570679 6.24334167 11.34039307 6.24050903 C10.40016422 6.24235262 9.45993538 6.24419621 8.49121475 6.24609566 C5.87965664 5.98811183 4.24311013 5.32598631 2 4 C2 3.34 2 2.68 2 2 C1.34 2 0.68 2 0 2 C0 1.34 0 0.68 0 0 Z " fill="#A4B4D0" transform="translate(21,184)"/>
<path d="M0 0 C0 0.99 0 1.98 0 3 C-3.00917917 4.00305972 -5.01685379 4.13038069 -8.1619873 4.14044189 C-9.76456642 4.14900711 -9.76456642 4.14900711 -11.39952087 4.15774536 C-12.5715657 4.15886322 -13.74361053 4.15998108 -14.95117188 4.16113281 C-16.18549454 4.16609772 -17.4198172 4.17106262 -18.69154358 4.17617798 C-22.07783882 4.1882862 -25.46407232 4.19574415 -28.85038185 4.20018864 C-30.96523429 4.20312013 -33.08008132 4.20722499 -35.19493103 4.21169281 C-41.8098595 4.22536213 -48.42477559 4.23503261 -55.0397172 4.2388947 C-62.67998333 4.24337989 -70.32007096 4.26095132 -77.9602828 4.2898953 C-83.86437902 4.31148761 -89.76842492 4.3215976 -95.67256021 4.32293582 C-99.19998443 4.32398525 -102.72724071 4.32992242 -106.25462341 4.34775543 C-110.18608412 4.36724567 -114.11732015 4.36295695 -118.04882812 4.35644531 C-119.22087296 4.3656601 -120.39291779 4.37487488 -121.60047913 4.3843689 C-122.6688652 4.37879974 -123.73725128 4.37323059 -124.8380127 4.36749268 C-125.76789253 4.36895924 -126.69777237 4.3704258 -127.65583038 4.3719368 C-130.41152169 3.93470607 -131.28840296 3.14721851 -133 1 C-132.33701212 1.00092179 -131.67402424 1.00184359 -130.99094582 1.00279331 C-114.87566284 1.02485612 -98.76038464 1.04141526 -82.6450901 1.05181217 C-74.85192956 1.05697338 -67.05877908 1.06401277 -59.265625 1.07543945 C-52.47489267 1.08539161 -45.68416763 1.0918547 -38.89342821 1.09408849 C-35.29618768 1.09539469 -31.69896802 1.09847484 -28.10173416 1.10573006 C-24.09076249 1.11375448 -20.07982732 1.11399079 -16.06884766 1.11352539 C-14.86979294 1.11712067 -13.67073822 1.12071594 -12.43534851 1.12442017 C-11.34717331 1.1230455 -10.25899811 1.12167084 -9.1378479 1.12025452 C-8.18840113 1.12117631 -7.23895435 1.1220981 -6.26073647 1.12304783 C-3.86069099 0.99241766 -2.37979476 0 0 0 Z " fill="#43597D" transform="translate(160,194)"/>
<path d="M0 0 C0.7528125 0.00128906 1.505625 0.00257812 2.28125 0.00390625 C5.15770055 0.56602951 6.41248338 1.36860927 8.5 3.4375 C8.98101807 6.30387878 8.98101807 6.30387878 8.95410156 9.83666992 C8.95468567 10.48084366 8.95526978 11.1250174 8.95587158 11.78871155 C8.95308714 13.91568089 8.92198214 16.04124462 8.890625 18.16796875 C8.88316379 19.64340957 8.87747029 21.1188603 8.87347412 22.59431458 C8.85820801 26.47601729 8.8189187 30.35712045 8.7746582 34.23858643 C8.73372602 38.19999073 8.71546755 42.16149201 8.6953125 46.12304688 C8.6524246 53.89480446 8.58416248 61.6660682 8.5 69.4375 C8.17 69.4375 7.84 69.4375 7.5 69.4375 C7.5 47.9875 7.5 26.5375 7.5 4.4375 C-0.90250332 3.47213109 -0.90250332 3.47213109 -4.02838135 6.56352234 C-5.68145626 9.79187254 -6.01495135 11.80806955 -6.04589844 15.42114258 C-6.06561707 16.60198929 -6.08533569 17.782836 -6.10565186 18.99946594 C-6.10688049 20.26421249 -6.10810913 21.52895905 -6.109375 22.83203125 C-6.12591125 24.13452316 -6.14244751 25.43701508 -6.15948486 26.77897644 C-6.2030735 30.22965383 -6.22313812 33.68007742 -6.23822021 37.13098145 C-6.25782237 40.65713455 -6.29978869 44.18301479 -6.33984375 47.70898438 C-6.41505318 54.6183865 -6.4654005 61.52777841 -6.5 68.4375 C-5.51 68.7675 -4.52 69.0975 -3.5 69.4375 C-3.995 70.4275 -3.995 70.4275 -4.5 71.4375 C-5.49 71.1075 -6.48 70.7775 -7.5 70.4375 C-8.87243216 67.69263568 -8.65000883 65.47122697 -8.67700195 62.39892578 C-8.68983719 61.13065948 -8.70267242 59.86239319 -8.71589661 58.55569458 C-8.72406334 57.16473785 -8.7315072 55.77377671 -8.73828125 54.3828125 C-8.74235678 53.68355526 -8.7464323 52.98429802 -8.75063133 52.26385117 C-8.77148921 48.56343633 -8.78579263 44.86305856 -8.79516602 41.16259766 C-8.80623581 37.34016699 -8.8406421 33.51831764 -8.88033772 29.69609261 C-8.90647785 26.75697749 -8.91485542 23.81800151 -8.91844749 20.87878036 C-8.92331953 19.46975652 -8.93495126 18.06073913 -8.95348549 16.65182877 C-8.97781876 14.67964939 -8.97449785 12.70718757 -8.9699707 10.73486328 C-8.97583694 9.61282501 -8.98170319 8.49078674 -8.98774719 7.33474731 C-8.12129034 2.1879421 -5.12231283 -0.13156625 0 0 Z " fill="#8FA2C0" transform="translate(52.5,75.5625)"/>
<path d="M0 0 C1.51400391 0.01740234 1.51400391 0.01740234 3.05859375 0.03515625 C4.07050781 0.04417969 5.08242187 0.05320313 6.125 0.0625 C6.90746094 0.07410156 7.68992188 0.08570313 8.49609375 0.09765625 C8.49609375 1.08765625 8.49609375 2.07765625 8.49609375 3.09765625 C7.84382813 3.00484375 7.1915625 2.91203125 6.51953125 2.81640625 C3.66421501 2.58056892 1.31257527 2.53603642 -1.50390625 3.09765625 C-4.17923958 5.38632031 -5.94827899 7.9484596 -7.50390625 11.09765625 C-7.50390625 11.75765625 -7.50390625 12.41765625 -7.50390625 13.09765625 C-6.18390625 13.42765625 -4.86390625 13.75765625 -3.50390625 14.09765625 C-4.77786515 16.13599049 -6.11452548 18.13617751 -7.50390625 20.09765625 C-8.16390625 20.09765625 -8.82390625 20.09765625 -9.50390625 20.09765625 C-9.73078125 20.90203125 -9.95765625 21.70640625 -10.19140625 22.53515625 C-11.81455133 26.94083574 -13.64317727 31.34393728 -16.50390625 35.09765625 C-19.77833483 36.37423659 -22.14393303 36.045341 -25.50390625 35.09765625 C-28.50390625 33.09765625 -28.50390625 33.09765625 -29.015625 31.15234375 C-29.17838542 29.13411458 -29.34114583 27.11588542 -29.50390625 25.09765625 C-27.00352891 27.27189742 -26.06762039 28.82811423 -25.50390625 32.09765625 C-20.44412161 27.70754899 -17.67021819 22.44006432 -14.50390625 16.59765625 C-8.43017971 5.39055169 -8.43017971 5.39055169 -3.50390625 1.09765625 C-2.50390625 0.09765625 -2.50390625 0.09765625 0 0 Z " fill="#4665A4" transform="translate(131.50390625,51.90234375)"/>
<path d="M0 0 C1 1 1 1 1.40234375 3.4453125 C0.80973503 8.68098179 -1.73337887 12.42509559 -4.4375 16.875 C-4.95376953 17.75414063 -5.47003906 18.63328125 -6.00195312 19.5390625 C-8.74644606 24.15985583 -8.74644606 24.15985583 -10 26 C-10.33 26 -10.66 26 -11 26 C-11.25 23.1875 -11.25 23.1875 -11 20 C-9 18.125 -9 18.125 -7 17 C-7.67534517 13.96154763 -7.67534517 13.96154763 -9.75 12.8125 C-12.29960574 11.89180904 -14.30923081 11.85051282 -17 12 C-16.73008805 7.54645288 -14.84937387 4.63444843 -11.9609375 1.38671875 C-8.34637403 -1.16939685 -4.22214549 -0.69971526 0 0 Z M-13 12 C-13 15 -13 15 -13 15 Z " fill="#4D6DA4" transform="translate(140,54)"/>
<path d="M0 0 C1.13050781 -0.03996094 2.26101562 -0.07992187 3.42578125 -0.12109375 C7.79252142 0.62674319 8.94267486 1.97875426 11.6875 5.4375 C13.62553222 8.4255792 15.36033472 11.49770807 17.0625 14.625 C17.52527344 15.44419922 17.98804687 16.26339844 18.46484375 17.10742188 C20.96109523 21.63420628 20.96109523 21.63420628 21.6875 23.4375 C21.3575 24.0975 21.0275 24.7575 20.6875 25.4375 C18.3125 24.375 18.3125 24.375 15.6875 22.4375 C14.375 18.75 14.375 18.75 13.6875 15.4375 C13.04941406 15.30472656 12.41132812 15.17195313 11.75390625 15.03515625 C10.51447266 14.77025391 10.51447266 14.77025391 9.25 14.5 C8.42628906 14.32597656 7.60257813 14.15195313 6.75390625 13.97265625 C4.6875 13.4375 4.6875 13.4375 3.6875 12.4375 C3.64657063 10.10452567 3.64508277 7.77044775 3.6875 5.4375 C1.21949953 6.58923355 -0.36033565 7.48533565 -2.3125 9.4375 C-2.9725 7.4575 -3.6325 5.4775 -4.3125 3.4375 C-4.3125 4.7575 -4.3125 6.0775 -4.3125 7.4375 C-5.3025 7.7675 -6.2925 8.0975 -7.3125 8.4375 C-7.9375 5.5625 -7.9375 5.5625 -8.3125 2.4375 C-5.56441738 -0.31058262 -3.83475466 0.0738288 0 0 Z " fill="#627DAE" transform="translate(80.3125,51.5625)"/>
<path d="M0 0 C2 0 2 0 3.6875 1.1875 C5 3 5 3 4.6875 5.6875 C4.460625 6.450625 4.23375 7.21375 4 8 C4.763125 7.938125 5.52625 7.87625 6.3125 7.8125 C9.5980482 8.04172429 9.76999648 8.7514848 12 11 C19.11981826 14.97754817 25.83522285 15.55538958 33.84375 15.42236328 C35.55287315 15.41842056 35.55287315 15.41842056 37.29652405 15.41439819 C41.03136485 15.40150202 44.76536457 15.36069467 48.5 15.3203125 C51.10407625 15.30776264 53.70816324 15.29728546 56.31225586 15.28878784 C62.44728181 15.2661287 68.58200944 15.22473563 74.71687031 15.17499244 C86.37590746 15.08065039 98.03502711 15.01546863 109.69433594 14.9659996 C113.52682586 14.94550329 117.35902879 14.91142231 121.19140625 14.87600708 C123.52473697 14.86235949 125.85807026 14.84914185 128.19140625 14.83642578 C129.26254166 14.82295105 130.33367706 14.80947632 131.43727112 14.79559326 C132.41002487 14.79256195 133.38277863 14.78953064 134.38500977 14.78640747 C135.23297623 14.77936861 136.08094269 14.77232975 136.9546051 14.76507759 C139 15 139 15 141 17 C125.13556792 17.11704762 109.27125332 17.20509256 93.40649605 17.25906086 C86.0394048 17.28479069 78.67258258 17.31984029 71.30566406 17.37719727 C64.88108692 17.42719336 58.45670472 17.45932894 52.03193843 17.47044247 C48.63317966 17.47693412 45.23497834 17.49207964 41.83639908 17.52865028 C38.03268983 17.56508013 34.23012587 17.56993917 30.42626953 17.56762695 C29.31208145 17.58560333 28.19789337 17.60357971 27.04994202 17.62210083 C20.50518836 17.57920512 15.9350143 16.5435603 10.23892021 13.26910686 C7.97888408 11.91532901 7.97888408 11.91532901 5.28804207 10.95534229 C3 10 3 10 1.85546875 8.125 C1.63503906 7.42375 1.41460937 6.7225 1.1875 6 C0.95417969 5.29875 0.72085937 4.5975 0.48046875 3.875 C0 2 0 2 0 0 Z " fill="#284C85" transform="translate(11,179)"/>
<path d="M0 0 C0.66 0.33 1.32 0.66 2 1 C2.33 1.99 2.66 2.98 3 4 C4.65 3.34 6.3 2.68 8 2 C8.33 4.31 8.66 6.62 9 9 C10.65 9.33 12.3 9.66 14 10 C13.67 10.99 13.34 11.98 13 13 C7.25 12.125 7.25 12.125 5 11 C5 10.34 5 9.68 5 9 C4.34 9 3.68 9 3 9 C3 10.32 3 11.64 3 13 C3.99 13.33 4.98 13.66 6 14 C8.9791794 16.29167646 9.5047783 18.33535945 10 22 C10.66 22 11.32 22 12 22 C13.70762186 26.09829246 15 29.53965365 15 34 C12.43339576 31.66801609 10.84570701 29.23556567 9.15234375 26.21875 C8.62962891 25.29449219 8.10691406 24.37023437 7.56835938 23.41796875 C6.76108398 21.97357422 6.76108398 21.97357422 5.9375 20.5 C4.86415872 18.59325579 3.78997595 16.68698496 2.71484375 14.78125 C2.24167725 13.93626953 1.76851074 13.09128906 1.28100586 12.22070312 C0.25399531 10.44031663 -0.85988844 8.71016735 -2 7 C-2.125 4.3125 -2.125 4.3125 -2 2 C-1.34 2 -0.68 2 0 2 C0 1.34 0 0.68 0 0 Z " fill="#3F65A1" transform="translate(76,55)"/>
<path d="M0 0 C0 0.66 0 1.32 0 2 C-0.66 2 -1.32 2 -2 2 C-2 2.66 -2 3.32 -2 4 C-2.99 4 -3.98 4 -5 4 C-5 4.66 -5 5.32 -5 6 C-46.58 6 -88.16 6 -131 6 C-131 5.67 -131 5.34 -131 5 C-91.07 5 -51.14 5 -10 5 C-10 4.34 -10 3.68 -10 3 C-8.70990357 2.49596232 -7.41786211 1.99690074 -6.125 1.5 C-5.04605469 1.08234375 -5.04605469 1.08234375 -3.9453125 0.65625 C-2 0 -2 0 0 0 Z " fill="#536E9E" transform="translate(165,185)"/>
<path d="M0 0 C0 5.27156084 -3.54913328 9.49468399 -6.1875 13.9375 C-7.0547168 15.44086914 -7.0547168 15.44086914 -7.93945312 16.97460938 C-8.50986328 17.94076172 -9.08027344 18.90691406 -9.66796875 19.90234375 C-10.18641357 20.78398193 -10.7048584 21.66562012 -11.23901367 22.57397461 C-13.74482856 26.02611416 -16.28734928 28.69286811 -20.5703125 29.4609375 C-21.41335937 29.43257812 -22.25640625 29.40421875 -23.125 29.375 C-23.97320312 29.36210937 -24.82140625 29.34921875 -25.6953125 29.3359375 C-28 29 -28 29 -31 27 C-31.1875 24.375 -31.1875 24.375 -31 22 C-29.68 21.67 -28.36 21.34 -27 21 C-26.4375 22.9375 -26.4375 22.9375 -26 25 C-26.33 25.33 -26.66 25.66 -27 26 C-24.69 26.33 -22.38 26.66 -20 27 C-19.67 26.01 -19.34 25.02 -19 24 C-17.68 24 -16.36 24 -15 24 C-14.87625 23.401875 -14.7525 22.80375 -14.625 22.1875 C-14 20 -14 20 -12 17 C-11.67 16.01 -11.34 15.02 -11 14 C-10.01 14 -9.02 14 -8 14 C-8.33 12.68 -8.66 11.36 -9 10 C-8.01 10 -7.02 10 -6 10 C-5.87625 9.05125 -5.7525 8.1025 -5.625 7.125 C-5 4 -5 4 -3 2 C-2.01 1.34 -1.02 0.68 0 0 Z " fill="#465B84" transform="translate(102,119)"/>
<path d="M0 0 C0.33 0 0.66 0 1 0 C1 17.16 1 34.32 1 52 C-2.74130983 53.24710328 -6.08762959 53.60190314 -10 53 C-12.0625 51.1875 -12.0625 51.1875 -13 49 C-12.67 48.01 -12.34 47.02 -12 46 C-12 46.66 -12 47.32 -12 48 C-10.72125 48.020625 -9.4425 48.04125 -8.125 48.0625 C-7.04605469 48.07990234 -7.04605469 48.07990234 -5.9453125 48.09765625 C-3.91814596 48.12649242 -3.91814596 48.12649242 -2 47 C-2.020625 45.824375 -2.04125 44.64875 -2.0625 43.4375 C-2.10866481 40.80610561 -1.91426539 38.44083131 -1.51367188 35.828125 C-0.99536905 31.965488 -0.79308246 28.2110761 -0.68359375 24.31640625 C-0.66281265 23.61603745 -0.64203156 22.91566864 -0.62062073 22.19407654 C-0.55587535 19.98363894 -0.49659392 17.77309515 -0.4375 15.5625 C-0.39424319 14.05272393 -0.35062677 12.54295812 -0.30664062 11.03320312 C-0.20027252 7.35557804 -0.09879998 3.67783709 0 0 Z " fill="#3A527C" transform="translate(59,95)"/>
<path d="M0 0 C2.475 0.99 2.475 0.99 5 2 C5 3.32 5 4.64 5 6 C4.34 6 3.68 6 3 6 C2.87625 6.5775 2.7525 7.155 2.625 7.75 C1.99351176 10.02335767 1.11141809 11.9253529 0 14 C-0.33 14 -0.66 14 -1 14 C-1.33 14.66 -1.66 15.32 -2 16 C-2.99 16.33 -3.98 16.66 -5 17 C-5.33 16.34 -5.66 15.68 -6 15 C-6.99 14.67 -7.98 14.34 -9 14 C-7.71191248 8.96474879 -5.78504829 6.50116967 -2 3 C-1.34 2.01 -0.68 1.02 0 0 Z " fill="#2F518E" transform="translate(128,66)"/>
<path d="M0 0 C1.16075043 0.00015106 2.32150085 0.00030212 3.51742554 0.00045776 C4.75513702 0.01078033 5.99284851 0.02110291 7.26806641 0.03173828 C9.18638779 0.03598312 9.18638779 0.03598312 11.14346313 0.04031372 C14.5268299 0.04959058 17.90992217 0.06752896 21.29321289 0.08972168 C24.75225465 0.11026038 28.21132487 0.11933252 31.67041016 0.12939453 C38.44522505 0.15141878 45.21991114 0.1848696 51.99462891 0.22705078 C51.99462891 0.55705078 51.99462891 0.88705078 51.99462891 1.22705078 C51.41770798 1.23735825 50.84078705 1.24766571 50.24638367 1.25828552 C44.19451475 1.36719722 38.14276968 1.48171627 32.09106445 1.59936523 C29.83816135 1.64244517 27.58523122 1.68413681 25.33227539 1.72436523 C22.07771694 1.78272681 18.82329118 1.84622468 15.56884766 1.91064453 C14.57568039 1.92735703 13.58251312 1.94406952 12.55924988 1.96128845 C2.72608963 2.04950867 2.72608963 2.04950867 -7.00537109 3.22705078 C-7.33537109 3.88705078 -7.66537109 4.54705078 -8.00537109 5.22705078 C-10.00537109 5.89371745 -12.00537109 6.56038411 -14.00537109 7.22705078 C-14.33537109 7.88705078 -14.66537109 8.54705078 -15.00537109 9.22705078 C-17.59311436 10.74400373 -20.08009083 11.60020501 -23.00537109 12.22705078 C-21.57304784 8.70719258 -19.92174149 7.15911454 -16.75537109 5.10205078 C-16.00771484 4.60447266 -15.26005859 4.10689453 -14.48974609 3.59423828 C-9.72105068 0.96995621 -5.42038402 -0.0236698 0 0 Z " fill="#5C749C" transform="translate(33.00537109375,0.77294921875)"/>
<path d="M0 0 C0.33 0 0.66 0 1 0 C1 22.77 1 45.54 1 69 C0.34 69 -0.32 69 -1 69 C-1.268125 69.969375 -1.53625 70.93875 -1.8125 71.9375 C-2.204375 72.948125 -2.59625 73.95875 -3 75 C-4.485 75.495 -4.485 75.495 -6 76 C-6 77.32 -6 78.64 -6 80 C-7.65 80 -9.3 80 -11 80 C-10.59007812 79.48050781 -10.18015625 78.96101563 -9.7578125 78.42578125 C-6.92363424 74.7576223 -4.40171967 71.48550294 -3 67 C-2.34 67 -1.68 67 -1 67 C-0.67 44.89 -0.34 22.78 0 0 Z " fill="#435892" transform="translate(176,105)"/>
<path d="M0 0 C0.71607422 -0.00322266 1.43214844 -0.00644531 2.16992188 -0.00976562 C5.90983562 0.02836139 8.95366126 0.10748405 12.0625 2.3125 C13.32487731 4.83725462 13.16106404 6.62450466 13.125 9.4375 C13.11597656 10.34757812 13.10695313 11.25765625 13.09765625 12.1953125 C13.08605469 12.89398438 13.07445313 13.59265625 13.0625 14.3125 C12.7325 14.3125 12.4025 14.3125 12.0625 14.3125 C11.5675 9.3625 11.5675 9.3625 11.0625 4.3125 C8.47853321 4.23137546 5.89712432 4.17195252 3.3125 4.125 C2.58289062 4.09986328 1.85328125 4.07472656 1.1015625 4.04882812 C-2.11060725 4.00502581 -4.51490906 4.0985299 -7.40625 5.5625 C-9.22084272 7.63632025 -9.50885727 8.77569841 -9.6875 11.5 C-9.77 12.758125 -9.8525 14.01625 -9.9375 15.3125 C-10.2675 15.3125 -10.5975 15.3125 -10.9375 15.3125 C-11.01857583 13.37568839 -11.07672475 11.4379066 -11.125 9.5 C-11.15980469 8.42105469 -11.19460937 7.34210937 -11.23046875 6.23046875 C-10.9375 3.3125 -10.9375 3.3125 -9.921875 1.4453125 C-6.76893538 -0.35459398 -3.5259502 -0.07891563 0 0 Z " fill="#F6B4B5" transform="translate(51.9375,52.6875)"/>
<path d="M0 0 C3.24683526 3.8478296 5.82455791 7.83473843 8.3125 12.1875 C8.8703418 13.13012695 8.8703418 13.13012695 9.43945312 14.09179688 C10.35848796 15.69197857 11.18737069 17.34324411 12 19 C11.67 19.66 11.34 20.32 11 21 C8.5625 20.25 8.5625 20.25 6 19 C5.1875 16.875 5.1875 16.875 5 15 C4.34 15 3.68 15 3 15 C3 17.31 3 19.62 3 22 C1 20 1 20 0.875 17.375 C0.91625 16.59125 0.9575 15.8075 1 15 C0.34 14.67 -0.32 14.34 -1 14 C-1 12.68 -1 11.36 -1 10 C-0.34 10 0.32 10 1 10 C0.67 6.7 0.34 3.4 0 0 Z " fill="#355B9C" transform="translate(121,104)"/>
<path d="M0 0 C4.74448436 0.0322754 8.58744862 0.43611674 13.046875 2.265625 C13.046875 2.925625 13.046875 3.585625 13.046875 4.265625 C13.706875 4.265625 14.366875 4.265625 15.046875 4.265625 C15.046875 4.925625 15.046875 5.585625 15.046875 6.265625 C9.106875 6.265625 3.166875 6.265625 -2.953125 6.265625 C-3.283125 4.945625 -3.613125 3.625625 -3.953125 2.265625 C-1.953125 0.265625 -1.953125 0.265625 0 0 Z " fill="#D96E73" transform="translate(46.953125,62.734375)"/>
<path d="M0 0 C0.33 0.66 0.66 1.32 1 2 C1.99 2.33 2.98 2.66 4 3 C2.84826645 5.46800047 1.95216435 7.04783565 0 9 C-0.33 8.67 -0.66 8.34 -1 8 C-1.2475 8.78375 -1.495 9.5675 -1.75 10.375 C-3 13 -3 13 -5.0625 13.875 C-5.701875 14.24625 -6.34125 14.6175 -7 15 C-7.81870185 18.56206661 -7.81870185 18.56206661 -8 22 C-8.99 22 -9.98 22 -11 22 C-11.33 22.99 -11.66 23.98 -12 25 C-12.66 25 -13.32 25 -14 25 C-12.68071914 21.48283007 -11.12651609 18.34691482 -9.1796875 15.13671875 C-8.37724609 13.80737305 -8.37724609 13.80737305 -7.55859375 12.45117188 C-6.72521484 11.0831543 -6.72521484 11.0831543 -5.875 9.6875 C-5.31167969 8.75615234 -4.74835938 7.82480469 -4.16796875 6.86523438 C-2.7819554 4.57478858 -1.39254372 2.28647924 0 0 Z " fill="#637AA1" transform="translate(86,116)"/>
<path d="M0 0 C1.49080078 0.02707031 1.49080078 0.02707031 3.01171875 0.0546875 C3.77097656 0.07789063 4.53023437 0.10109375 5.3125 0.125 C5.3125 1.115 5.3125 2.105 5.3125 3.125 C4.33410156 2.98578125 4.33410156 2.98578125 3.3359375 2.84375 C-2.02937213 2.32756055 -2.02937213 2.32756055 -6.6171875 4.73046875 C-9.26630247 8.24285253 -11.36894472 11.90562311 -12.6875 16.125 C-13.3475 16.125 -14.0075 16.125 -14.6875 16.125 C-15.0175 17.115 -15.3475 18.105 -15.6875 19.125 C-16.6775 19.455 -17.6675 19.785 -18.6875 20.125 C-17.16962384 15.93314512 -15.08279828 12.21706125 -12.75 8.4375 C-12.40259766 7.85677734 -12.05519531 7.27605469 -11.69726562 6.67773438 C-8.42465501 1.34664552 -6.21309994 -0.14619059 0 0 Z " fill="#7289AC" transform="translate(134.6875,51.875)"/>
<path d="M0 0 C21.67212276 -1.00127877 21.67212276 -1.00127877 29 5 C30.75 7.171875 30.75 7.171875 32 9 C29.525 8.505 29.525 8.505 27 8 C26.67 7.01 26.34 6.02 26 5 C25.071875 5.226875 24.14375 5.45375 23.1875 5.6875 C17.88345258 6.49511216 13.00734869 4.60271377 8 3 C8 2.67 8 2.34 8 2 C5.36 1.67 2.72 1.34 0 1 C0 0.67 0 0.34 0 0 Z " fill="#627FAC" transform="translate(142,1)"/>
<path d="M0 0 C0.33 0.66 0.66 1.32 1 2 C-2.50776784 3.60355101 -5.14354879 4.22036864 -9 4 C-9.33 5.32 -9.66 6.64 -10 8 C-11.2375 7.938125 -12.475 7.87625 -13.75 7.8125 C-16.78211302 7.79637174 -17.82248296 7.89348977 -20.5 9.5 C-20.995 9.995 -21.49 10.49 -22 11 C-22 10.01 -22 9.02 -22 8 C-21.01 7.67 -20.02 7.34 -19 7 C-19 6.34 -19 5.68 -19 5 C-12.6672508 1.71125344 -7.12608999 0.29754029 0 0 Z " fill="#3D619A" transform="translate(40,3)"/>
<path d="M0 0 C1.1484375 1.671875 1.1484375 1.671875 2 4 C1.1015625 6.578125 1.1015625 6.578125 -0.375 9.25 C-0.85710937 10.14203125 -1.33921875 11.0340625 -1.8359375 11.953125 C-2.22007813 12.62859375 -2.60421875 13.3040625 -3 14 C-6.37462715 13.45276317 -8.08235 12.9451 -11 11 C-11.70052461 8.336937 -11.77744818 5.75964263 -12 3 C-9.49962266 5.17424117 -8.56371414 6.73045798 -8 10 C-4.71211176 6.88983545 -2.16264012 3.98381075 0 0 Z " fill="#526F9B" transform="translate(114,74)"/>
<path d="M0 0 C0.94826497 2.53399476 1.14200665 3.64541655 0.11962891 6.19824219 C-0.34008301 6.97329102 -0.79979492 7.74833984 -1.2734375 8.546875 C-1.7684375 9.39121094 -2.2634375 10.23554687 -2.7734375 11.10546875 C-3.56621094 12.41451172 -3.56621094 12.41451172 -4.375 13.75 C-4.89578125 14.63816406 -5.4165625 15.52632812 -5.953125 16.44140625 C-8.73765162 21.13758974 -8.73765162 21.13758974 -10 23 C-10.33 23 -10.66 23 -11 23 C-11.25 20.1875 -11.25 20.1875 -11 17 C-9 15.125 -9 15.125 -7 14 C-7.309375 13.401875 -7.61875 12.80375 -7.9375 12.1875 C-9 10 -9 10 -10 7 C-9.36191406 6.82984375 -8.72382813 6.6596875 -8.06640625 6.484375 C-6.82697266 6.12085938 -6.82697266 6.12085938 -5.5625 5.75 C-4.73878906 5.51796875 -3.91507813 5.2859375 -3.06640625 5.046875 C-0.80004532 4.19229321 -0.80004532 4.19229321 -0.21484375 1.890625 C-0.14394531 1.26671875 -0.07304687 0.6428125 0 0 Z " fill="#5470A1" transform="translate(140,57)"/>
<path d="M0 0 C0.99 0 1.98 0 3 0 C0.71871705 8.11122828 -6.11594095 13.45746062 -12.88671875 17.87109375 C-14.93791918 18.96683668 -16.72718582 19.55364597 -19 20 C-19 19.01 -19 18.02 -19 17 C-16 15 -16 15 -12 15 C-12 14.34 -12 13.68 -12 13 C-11.1028125 12.5978125 -11.1028125 12.5978125 -10.1875 12.1875 C-6.68911463 10.28837651 -5.26654546 8.79963639 -4 5 C-1.9375 4.3125 -1.9375 4.3125 0 4 C0 2.68 0 1.36 0 0 Z " fill="#405C85" transform="translate(179,177)"/>
<path d="M0 0 C2.6875 0.3125 2.6875 0.3125 5 1 C3.46145084 2.02569944 1.91751827 3.04765186 0.31640625 3.97265625 C-5.02734668 7.29316197 -6.94809667 11.15016381 -9 17 C-11 15 -11 15 -11.046875 12.6875 C-10.94890625 11.800625 -10.8509375 10.91375 -10.75 10 C-10.66234375 9.113125 -10.5746875 8.22625 -10.484375 7.3125 C-10 5 -10 5 -8 3 C-6.7934375 3.0309375 -6.7934375 3.0309375 -5.5625 3.0625 C-2.93496985 3.29938201 -2.93496985 3.29938201 -1.5 1.4375 C-1.005 0.963125 -0.51 0.48875 0 0 Z " fill="#3E5A90" transform="translate(22,10)"/>
<path d="M0 0 C5.13899614 6.54054054 5.13899614 6.54054054 4.75 10.625 C4 13 4 13 2 15 C-0.3828125 15.1953125 -0.3828125 15.1953125 -3.125 15.125 C-4.49011719 15.09792969 -4.49011719 15.09792969 -5.8828125 15.0703125 C-6.58148438 15.04710937 -7.28015625 15.02390625 -8 15 C-6.68 14.34 -5.36 13.68 -4 13 C-4.66 12.67 -5.32 12.34 -6 12 C-6 11.34 -6 10.68 -6 10 C-4.68 10 -3.36 10 -2 10 C-2 10.66 -2 11.32 -2 12 C-0.68 11.67 0.64 11.34 2 11 C1.505 9.948125 1.505 9.948125 1 8.875 C-0.09044562 5.73996884 -0.15322643 3.29436818 0 0 Z " fill="#4C608A" transform="translate(138,133)"/>
<path d="M0 0 C2.45898655 -0.08076963 4.91533742 -0.14037143 7.375 -0.1875 C8.07367188 -0.21263672 8.77234375 -0.23777344 9.4921875 -0.26367188 C11.5234375 -0.29296875 11.5234375 -0.29296875 15 0 C15.66 0.99 16.32 1.98 17 3 C16.67 4.65 16.34 6.3 16 8 C9.73 8 3.46 8 -3 8 C-3 7.67 -3 7.34 -3 7 C2.94 7 8.88 7 15 7 C15 6.34 15 5.68 15 5 C14.34 5 13.68 5 13 5 C13 4.34 13 3.68 13 3 C12.195625 3.020625 11.39125 3.04125 10.5625 3.0625 C8 3 8 3 7 2 C4.67182036 1.63239269 2.3381615 1.29758419 0 1 C0 0.67 0 0.34 0 0 Z " fill="#EC8D90" transform="translate(47,62)"/>
<path d="M0 0 C3.41378883 3.41378883 5.40869731 6.8858228 7.75 11.0625 C8.17410156 11.79533203 8.59820312 12.52816406 9.03515625 13.28320312 C9.43089844 13.98509766 9.82664062 14.68699219 10.234375 15.41015625 C10.59756836 16.05090088 10.96076172 16.69164551 11.33496094 17.35180664 C11.66415527 18.16766235 11.66415527 18.16766235 12 19 C11.67 19.66 11.34 20.32 11 21 C8.625 19.9375 8.625 19.9375 6 18 C5.30643577 15.67451993 4.63850788 13.34119555 4 11 C2.68 10.34 1.36 9.68 0 9 C0 6.03 0 3.06 0 0 Z " fill="#788FB4" transform="translate(90,56)"/>
<path d="M0 0 C0 3.62197368 -0.97003238 5.01092863 -2.80859375 8.10546875 C-3.39060547 9.08837891 -3.97261719 10.07128906 -4.57226562 11.08398438 C-5.18779297 12.10814453 -5.80332031 13.13230469 -6.4375 14.1875 C-7.04916016 15.22326172 -7.66082031 16.25902344 -8.29101562 17.32617188 C-11.64381606 22.95368995 -11.64381606 22.95368995 -13 25 C-13.33 25 -13.66 25 -14 25 C-14.20086443 21.28400809 -14.1519437 20.22791555 -12 17 C-11.67 16.01 -11.34 15.02 -11 14 C-10.01 14 -9.02 14 -8 14 C-8.33 12.68 -8.66 11.36 -9 10 C-8.01 10 -7.02 10 -6 10 C-5.87625 9.05125 -5.7525 8.1025 -5.625 7.125 C-5 4 -5 4 -3 2 C-2.01 1.34 -1.02 0.68 0 0 Z " fill="#54658C" transform="translate(102,119)"/>
<path d="M0 0 C0.66 0.33 1.32 0.66 2 1 C2 1.66 2 2.32 2 3 C2.66 3.33 3.32 3.66 4 4 C4.99 4.66 5.98 5.32 7 6 C7.125 8.375 7.125 8.375 7 11 C7.20625 11.721875 7.4125 12.44375 7.625 13.1875 C7.74875 13.785625 7.8725 14.38375 8 15 C7.34 15.66 6.68 16.32 6 17 C4.79471335 15.11542462 3.61133551 13.21682415 2.4375 11.3125 C1.44556641 9.72888672 1.44556641 9.72888672 0.43359375 8.11328125 C-1.12228996 4.73442753 -1.17333576 3.45589057 0 0 Z " fill="#3B5381" transform="translate(111,114)"/>
<path d="M0 0 C-0.804375 0.28875 -1.60875 0.5775 -2.4375 0.875 C-5.1326468 1.73262568 -5.1326468 1.73262568 -6 4 C-8 4.66666667 -10 5.33333333 -12 6 C-12.33 6.66 -12.66 7.32 -13 8 C-15.58774327 9.51695295 -18.07471973 10.37315423 -21 11 C-18.52581486 4.91982162 -12.46836901 2.07117901 -6.6875 -0.4375 C-3.99205534 -1.00166284 -2.54651194 -0.97942767 0 0 Z " fill="#7186AD" transform="translate(31,2)"/>
<path d="M0 0 C0.66 0 1.32 0 2 0 C2.33 1.093125 2.66 2.18625 3 3.3125 C4.00141997 5.68907563 4.58485608 6.76025659 6.83984375 8.0625 C8.87721919 8.79094708 10.91701079 9.41625907 13 10 C15.4375 11 15.4375 11 17 12 C17.33 12.99 17.66 13.98 18 15 C10.95813189 13.14172925 3.72874214 10.38755195 -0.28515625 3.93359375 C-0.52105469 3.29550781 -0.75695313 2.65742188 -1 2 C-0.67 1.34 -0.34 0.68 0 0 Z " fill="#445980" transform="translate(10,182)"/>
<path d="M0 0 C0.33 0.66 0.66 1.32 1 2 C1.66 2 2.32 2 3 2 C3 2.66 3 3.32 3 4 C2.34 4 1.68 4 1 4 C-0.74849671 8.3039919 -2.3770361 12.64750591 -4 17 C-4.66 17 -5.32 17 -6 17 C-5.82316211 10.05509386 -4.11844576 5.57737857 0 0 Z " fill="#627AA9" transform="translate(9,13)"/>
<path d="M0 0 C0.66 0 1.32 0 2 0 C3.23446068 3.70338204 3.44981274 7.14660418 3 11 C1.5 14 1.5 14 0 16 C-0.85833313 13.42500062 -1.34052985 11.23462078 -1.6875 8.5625 C-1.84798828 7.41974609 -1.84798828 7.41974609 -2.01171875 6.25390625 C-1.99818831 3.6515519 -1.31652765 2.21438943 0 0 Z " fill="#2F4E85" transform="translate(119,116)"/>
<path d="M0 0 C0.99 0 1.98 0 3 0 C3.33 1.65 3.66 3.3 4 5 C4.66 5 5.32 5 6 5 C7.70762186 9.09829246 9 12.53965365 9 17 C6.20546094 14.51596528 4.59290588 11.77067154 2.8125 8.5 C2.28269531 7.5409375 1.75289063 6.581875 1.20703125 5.59375 C0 3 0 3 0 0 Z " fill="#4A638C" transform="translate(82,72)"/>
<path d="M0 0 C2.875 0.5625 2.875 0.5625 6 2 C7.375 5.625 7.375 5.625 8 9 C8.66 9 9.32 9 10 9 C10.33 9.99 10.66 10.98 11 12 C10.34 12 9.68 12 9 12 C8.67 12.66 8.34 13.32 8 14 C7.34 13.67 6.68 13.34 6 13 C5.375 9.9375 5.375 9.9375 5 7 C4.34 7 3.68 7 3 7 C3 6.34 3 5.68 3 5 C2.34 5 1.68 5 1 5 C0.67 3.35 0.34 1.7 0 0 Z " fill="#345B9B" transform="translate(171,14)"/>
<path d="M0 0 C4.26366857 3.68749714 6.90261254 7.36749089 8 13 C7.5703125 15.24609375 7.5703125 15.24609375 7 17 C6.34 15.02 5.68 13.04 5 11 C4.01 11.33 3.02 11.66 2 12 C1.93941406 11.38511719 1.87882813 10.77023438 1.81640625 10.13671875 C1.73261719 9.32847656 1.64882812 8.52023438 1.5625 7.6875 C1.48128906 6.88699219 1.40007812 6.08648437 1.31640625 5.26171875 C1.04734307 2.83912821 1.04734307 2.83912821 0 0 Z " fill="#6A82AE" transform="translate(176,12)"/>
<path d="M0 0 C2.475 0.99 2.475 0.99 5 2 C4.14148438 2.62841797 4.14148438 2.62841797 3.265625 3.26953125 C1.00791958 4.99395108 -1.12118056 6.80704283 -3.25 8.6875 C-4.30960937 9.62142578 -4.30960937 9.62142578 -5.390625 10.57421875 C-5.92171875 11.04472656 -6.4528125 11.51523438 -7 12 C-7.33 11.01 -7.66 10.02 -8 9 C-6.8553125 7.88625 -6.8553125 7.88625 -5.6875 6.75 C-3.5606298 4.5736677 -1.7440044 2.47832204 0 0 Z " fill="#385A97" transform="translate(128,66)"/>
<path d="M0 0 C0.66 0.99 1.32 1.98 2 3 C0.87020948 7.51916208 -1.12719054 11.74361486 -3 16 C-3.66 15.67 -4.32 15.34 -5 15 C-5.625 12.9375 -5.625 12.9375 -6 11 C-5.01 11 -4.02 11 -3 11 C-2.87625 10.113125 -2.7525 9.22625 -2.625 8.3125 C-2.05587264 5.29612498 -1.23385564 2.79673946 0 0 Z " fill="#5C77A4" transform="translate(122,85)"/>
<path d="M0 0 C0.66 0 1.32 0 2 0 C2 0.66 2 1.32 2 2 C2.61875 2.226875 3.2375 2.45375 3.875 2.6875 C6.68240771 4.42148712 7.17387474 5.84570354 8 9 C7.625 11.3125 7.625 11.3125 7 13 C6.9175 12.21625 6.835 11.4325 6.75 10.625 C6.28389075 7.87359896 6.28389075 7.87359896 4.0625 6.8125 C3.381875 6.544375 2.70125 6.27625 2 6 C1.34 5.34 0.68 4.68 0 4 C0 2.68 0 1.36 0 0 Z " fill="#2D5293" transform="translate(79,64)"/>
<path d="M0 0 C2.27156921 0.06001504 4.54239274 0.14879968 6.8125 0.25 C8.07707031 0.29640625 9.34164062 0.3428125 10.64453125 0.390625 C14 1 14 1 15.94921875 3.046875 C16.29597656 3.69140625 16.64273438 4.3359375 17 5 C16.34 5 15.68 5 15 5 C14.67 5.66 14.34 6.32 14 7 C13.34 6.34 12.68 5.68 12 5 C9.97955123 4.23323689 7.93374458 3.53204614 5.875 2.875 C4.77929688 2.52179687 3.68359375 2.16859375 2.5546875 1.8046875 C1.71164063 1.53914062 0.86859375 1.27359375 0 1 C0 0.67 0 0.34 0 0 Z " fill="#3D629D" transform="translate(154,5)"/>
<path d="M0 0 C0 0.66 0 1.32 0 2 C-0.66 2 -1.32 2 -2 2 C-2 2.66 -2 3.32 -2 4 C-2.99 4 -3.98 4 -5 4 C-5 4.66 -5 5.32 -5 6 C-8.3 6 -11.6 6 -15 6 C-15 5.67 -15 5.34 -15 5 C-13.35 5 -11.7 5 -10 5 C-10 4.34 -10 3.68 -10 3 C-8.70990357 2.49596232 -7.41786211 1.99690074 -6.125 1.5 C-5.40570313 1.2215625 -4.68640625 0.943125 -3.9453125 0.65625 C-2 0 -2 0 0 0 Z " fill="#5D77A2" transform="translate(165,185)"/>
<path d="M0 0 C2.62747944 2.3772433 4.18609908 4.97683181 6 8 C7.58245275 9.75149165 7.58245275 9.75149165 9 11 C7.35 11 5.7 11 4 11 C4 10.34 4 9.68 4 9 C3.01 8.67 2.02 8.34 1 8 C0.67 5.36 0.34 2.72 0 0 Z " fill="#5C79A8" transform="translate(12,173)"/>
<path d="M0 0 C0.33 0 0.66 0 1 0 C1.25 5.625 1.25 5.625 -1 9 C-1.66 9 -2.32 9 -3 9 C-3 10.32 -3 11.64 -3 13 C-4.65 13 -6.3 13 -8 13 C-7.59007812 12.48050781 -7.18015625 11.96101562 -6.7578125 11.42578125 C-3.92363424 7.7576223 -1.40171967 4.48550294 0 0 Z " fill="#6E85AB" transform="translate(173,172)"/>
<path d="M0 0 C0.75 1.625 0.75 1.625 1 4 C-0.8125 7.25 -0.8125 7.25 -3 10 C-3.66 10 -4.32 10 -5 10 C-4.4454626 6.67277559 -3.75986957 3.8986087 -2 1 C-1.34 0.67 -0.68 0.34 0 0 Z " fill="#4063A8" transform="translate(117,78)"/>
<path d="M0 0 C0.33 0.66 0.66 1.32 1 2 C3.01669827 3.13350534 3.01669827 3.13350534 5 4 C5 5.32 5 6.64 5 8 C2.625 7.75 2.625 7.75 0 7 C-1.3125 4.9375 -1.3125 4.9375 -2 3 C-1.34 2.01 -0.68 1.02 0 0 Z " fill="#4E6AA0" transform="translate(97,73)"/>
<path d="M0 0 C1.98 0 3.96 0 6 0 C6.99 1.98 7.98 3.96 9 6 C6.03 5.505 6.03 5.505 3 5 C2.67 4.01 2.34 3.02 2 2 C1.34 2 0.68 2 0 2 C0 1.34 0 0.68 0 0 Z " fill="#4D6BA0" transform="translate(169,10)"/>
<path d="M0 0 C0.33 0.66 0.66 1.32 1 2 C1.99 2.33 2.98 2.66 4 3 C2.84826645 5.46800047 1.95216435 7.04783565 0 9 C-0.99 8.34 -1.98 7.68 -3 7 C-1.125 1.125 -1.125 1.125 0 0 Z " fill="#6077AE" transform="translate(86,116)"/>
<path d="M0 0 C0.99 0 1.98 0 3 0 C2.67 1.65 2.34 3.3 2 5 C1.34 5 0.68 5 0 5 C-0.33 5.66 -0.66 6.32 -1 7 C-3.5625 7.625 -3.5625 7.625 -6 8 C-4.7260411 5.96166576 -3.38938077 3.96147874 -2 2 C-1.34 2 -0.68 2 0 2 C0 1.34 0 0.68 0 0 Z " fill="#40629F" transform="translate(137,56)"/>
<path d="M0 0 C2.61500768 2.36595933 4.38999603 4.86049226 6 8 C5.67 8.66 5.34 9.32 5 10 C2.525 9.01 2.525 9.01 0 8 C0 5.36 0 2.72 0 0 Z " fill="#7B8DB4" transform="translate(127,115)"/>
<path d="M0 0 C0.33 1.32 0.66 2.64 1 4 C0.34 4 -0.32 4 -1 4 C-1.33 5.98 -1.66 7.96 -2 10 C-2.99 10.33 -3.98 10.66 -5 11 C-5 11.99 -5 12.98 -5 14 C-5.66 14 -6.32 14 -7 14 C-5.53967505 8.68972746 -3.01679014 4.53669968 0 0 Z " fill="#7D90B5" transform="translate(94,102)"/>
<path d="M0 0 C-0.804375 0.28875 -1.60875 0.5775 -2.4375 0.875 C-5.1326468 1.73262568 -5.1326468 1.73262568 -6 4 C-8.4375 4.75 -8.4375 4.75 -11 5 C-11.66 4.34 -12.32 3.68 -13 3 C-11.5903653 2.29819469 -10.17192359 1.61406042 -8.75 0.9375 C-7.96109375 0.55464844 -7.1721875 0.17179688 -6.359375 -0.22265625 C-3.74006478 -1.08564091 -2.55144824 -0.93045933 0 0 Z " fill="#7B91B4" transform="translate(31,2)"/>
<path d="M0 0 C2.50037734 2.17424117 3.43628586 3.73045798 4 7 C5.65 6.01 7.3 5.02 9 4 C8.3125 5.9375 8.3125 5.9375 7 8 C4.375 8.75 4.375 8.75 2 9 C0 2.25 0 2.25 0 0 Z " fill="#90A4C4" transform="translate(102,77)"/>
<path d="M0 0 C0.33 0.99 0.66 1.98 1 3 C0.34 3 -0.32 3 -1 3 C-1.103125 3.763125 -1.20625 4.52625 -1.3125 5.3125 C-2.04364039 8.17059424 -2.76951913 9.15742885 -5 11 C-5.66 9.35 -6.32 7.7 -7 6 C-6.360625 5.71125 -5.72125 5.4225 -5.0625 5.125 C-2.84793921 4.17176549 -2.84793921 4.17176549 -2 2 C-1.34 2 -0.68 2 0 2 C0 1.34 0 0.68 0 0 Z " fill="#5773A7" transform="translate(122,66)"/>
<path d="M0 0 C0.99 0 1.98 0 3 0 C3.33 1.98 3.66 3.96 4 6 C4.99 6.33 5.98 6.66 7 7 C7.33 7.99 7.66 8.98 8 10 C7.34 10.66 6.68 11.32 6 12 C4.99466333 10.37829621 3.99588093 8.75252763 3 7.125 C2.443125 6.22007813 1.88625 5.31515625 1.3125 4.3828125 C0 2 0 2 0 0 Z " fill="#5F779E" transform="translate(75,62)"/>
<path d="M0 0 C2.1640625 -0.29296875 2.1640625 -0.29296875 4.625 -0.1875 C5.44226562 -0.16042969 6.25953125 -0.13335937 7.1015625 -0.10546875 C8.04128906 -0.05326172 8.04128906 -0.05326172 9 0 C9.33 0.66 9.66 1.32 10 2 C5.915021 2.54466387 2.1274515 3 -2 3 C-1.34 2.01 -0.68 1.02 0 0 Z " fill="#EB7577" transform="translate(45,63)"/>
<path d="M0 0 C1.51400391 0.01740234 1.51400391 0.01740234 3.05859375 0.03515625 C4.07050781 0.04417969 5.08242187 0.05320313 6.125 0.0625 C7.29869141 0.07990234 7.29869141 0.07990234 8.49609375 0.09765625 C8.49609375 1.08765625 8.49609375 2.07765625 8.49609375 3.09765625 C7.05901285 3.15188572 5.62133913 3.19055348 4.18359375 3.22265625 C3.38308594 3.24585938 2.58257812 3.2690625 1.7578125 3.29296875 C-0.50390625 3.09765625 -0.50390625 3.09765625 -3.50390625 1.09765625 C-2.50390625 0.09765625 -2.50390625 0.09765625 0 0 Z " fill="#8095B4" transform="translate(131.50390625,51.90234375)"/>
<path d="M0 0 C3.09592835 3.5087188 4.74194623 6.49197399 6 11 C4 11 4 11 2.4375 10 C0.19187539 6.87565271 0.31165434 3.80218292 0 0 Z " fill="#758EB0" transform="translate(121,104)"/>
<path d="M0 0 C0.99 0 1.98 0 3 0 C3 0.99 3 1.98 3 3 C3.495 3.433125 3.99 3.86625 4.5 4.3125 C6 6 6 6 6.1875 9.1875 C6.125625 10.115625 6.06375 11.04375 6 12 C5.01 12.495 5.01 12.495 4 13 C3.896875 12.113125 3.79375 11.22625 3.6875 10.3125 C2.98527954 6.92907415 1.8403423 4.88053577 0 2 C0 1.34 0 0.68 0 0 Z " fill="#6F82AA" transform="translate(91,89)"/>
<path d="M0 0 C1.46726798 3.81489674 0.43336419 6.29011622 -1 10 C-1.66 10 -2.32 10 -3 10 C-2.88637738 8.5199159 -2.75877092 7.04089926 -2.625 5.5625 C-2.55539063 4.73878906 -2.48578125 3.91507813 -2.4140625 3.06640625 C-2.27742187 2.38449219 -2.14078125 1.70257812 -2 1 C-1.34 0.67 -0.68 0.34 0 0 Z " fill="#5A769C" transform="translate(6,20)"/>
<path d="M0 0 C0.75 1.6875 0.75 1.6875 1 4 C-0.8125 6.75 -0.8125 6.75 -3 9 C-3.66 9 -4.32 9 -5 9 C-4.37315423 6.07471973 -3.51695295 3.58774327 -2 1 C-1.34 0.67 -0.68 0.34 0 0 Z " fill="#355BA3" transform="translate(12,16)"/>
<path d="M0 0 C0.66 0 1.32 0 2 0 C3.32 2.97 4.64 5.94 6 9 C0.72727273 6.36363636 0.72727273 6.36363636 -1 4 C-0.6875 1.8125 -0.6875 1.8125 0 0 Z " fill="#5C6E95" transform="translate(10,182)"/>
<path d="M0 0 C0 3 0 3 -2.5 5.6875 C-3.325 6.450625 -4.15 7.21375 -5 8 C-5.66 7.34 -6.32 6.68 -7 6 C-3.375 1.125 -3.375 1.125 0 0 Z " fill="#284D86" transform="translate(174,183)"/>
<path d="M0 0 C0.99 0 1.98 0 3 0 C3 0.66 3 1.32 3 2 C3.99 2.66 4.98 3.32 6 4 C5.67 5.65 5.34 7.3 5 9 C0.57142857 3.85714286 0.57142857 3.85714286 0 0 Z " fill="#53688C" transform="translate(113,122)"/>
<path d="M0 0 C0.75 1.5625 0.75 1.5625 1 4 C-0.13084437 6.50286409 -1.52139516 8.67007722 -3 11 C-3.33 11 -3.66 11 -4 11 C-3.67 8.69 -3.34 6.38 -3 4 C-2.34 4 -1.68 4 -1 4 C-0.67 2.68 -0.34 1.36 0 0 Z " fill="#6881AA" transform="translate(140,57)"/>
<path d="M0 0 C0 0.66 0 1.32 0 2 C-2.64 2.99 -5.28 3.98 -8 5 C-8 4.01 -8 3.02 -8 2 C-4.77208445 -0.1519437 -3.71599191 -0.20086443 0 0 Z " fill="#465A81" transform="translate(168,192)"/>
<path d="M0 0 C1.31471568 0.28151087 2.62675767 0.57553339 3.9375 0.875 C4.66839844 1.03742188 5.39929688 1.19984375 6.15234375 1.3671875 C8 2 8 2 9 4 C6.69 4 4.38 4 2 4 C1.34 2.68 0.68 1.36 0 0 Z " fill="#2E4069" transform="translate(126,143)"/>
<path d="M0 0 C1.8871875 0.061875 1.8871875 0.061875 3.8125 0.125 C3.1525 0.785 2.4925 1.445 1.8125 2.125 C0.636875 2.0940625 0.636875 2.0940625 -0.5625 2.0625 C-3.73631118 2.13806693 -4.859326 3.055512 -7.1875 5.125 C-7.1875 4.135 -7.1875 3.145 -7.1875 2.125 C-4.09861478 0.06574319 -3.47814073 -0.1140374 0 0 Z " fill="#35558B" transform="translate(25.1875,8.875)"/>
<path d="M0 0 C0.33 0 0.66 0 1 0 C1 3.63 1 7.26 1 11 C0.34 11 -0.32 11 -1 11 C-1.33 11.66 -1.66 12.32 -2 13 C-1.48041715 8.62065881 -0.94324258 4.31196609 0 0 Z " fill="#476497" transform="translate(176,163)"/>
<path d="M0 0 C2.72426311 2.35277269 3.8141763 4.62496331 5 8 C4.01 8.33 3.02 8.66 2 9 C0.50178941 5.62902617 0 3.79557881 0 0 Z " fill="#8096BB" transform="translate(133,125)"/>
<path d="M0 0 C0 4.24645065 -1.81750806 6.38524772 -4 10 C-5.13561748 6.34078813 -4.73078723 4.46157446 -3 1 C-2.01 0.67 -1.02 0.34 0 0 Z " fill="#69799E" transform="translate(102,119)"/>
<path d="M0 0 C0.66 1.32 1.32 2.64 2 4 C0.69593116 6.01920337 -0.63823419 8.01924973 -2 10 C-2.33 10 -2.66 10 -3 10 C-2.25 3.375 -2.25 3.375 0 0 Z " fill="#5A6D98" transform="translate(127,78)"/>
<path d="M0 0 C0.33 0.99 0.66 1.98 1 3 C1.66 3.33 2.32 3.66 3 4 C2.01 5.485 2.01 5.485 1 7 C1 7.99 1 8.98 1 10 C0.34 10 -0.32 10 -1 10 C-1.02689216 8.52093108 -1.04634621 7.04172517 -1.0625 5.5625 C-1.07410156 4.73878906 -1.08570313 3.91507813 -1.09765625 3.06640625 C-1 1 -1 1 0 0 Z " fill="#E5858A" transform="translate(43,59)"/>
<path d="M0 0 C0.66 0.33 1.32 0.66 2 1 C2 2.98 2 4.96 2 7 C0.68 7 -0.64 7 -2 7 C-2 5.35 -2 3.7 -2 2 C-1.34 2 -0.68 2 0 2 C0 1.34 0 0.68 0 0 Z " fill="#4A679D" transform="translate(76,55)"/>
<path d="M0 0 C0.99 0.33 1.98 0.66 3 1 C3 1.66 3 2.32 3 3 C3.66 3.33 4.32 3.66 5 4 C2.36 4 -0.28 4 -3 4 C-2.67 3.01 -2.34 2.02 -2 1 C-1.34 0.67 -0.68 0.34 0 0 Z " fill="#36568F" transform="translate(18,183)"/>
<path d="M0 0 C3.93846154 4.30769231 3.93846154 4.30769231 4.25 7.8125 C4.1675 8.534375 4.085 9.25625 4 10 C0.9083091 7.47043472 0.09068668 4.77545388 -1 1 C-0.67 0.67 -0.34 0.34 0 0 Z " fill="#5A6F96" transform="translate(5,174)"/>
<path d="M0 0 C2.11180592 2.57089417 3.66306057 4.63060567 4 8 C3.34 8.66 2.68 9.32 2 10 C-0.09350689 6.5980513 -0.17942163 3.94727588 0 0 Z " fill="#5F79A0" transform="translate(138,133)"/>
<path d="M0 0 C3.91402949 1.26941497 5.79072873 2.51167694 8 6 C6.35 5.67 4.7 5.34 3 5 C2.67 4.01 2.34 3.02 2 2 C1.01 1.67 0.02 1.34 -1 1 C-0.67 0.67 -0.34 0.34 0 0 Z " fill="#7E92B4" transform="translate(166,4)"/>
<path d="M0 0 C0.99 0 1.98 0 3 0 C1.8141763 3.37503669 0.72426311 5.64722731 -2 8 C-2 6.68 -2 5.36 -2 4 C-1.34 4 -0.68 4 0 4 C0 2.68 0 1.36 0 0 Z " fill="#62779A" transform="translate(179,177)"/>
<path d="M0 0 C0.66 0.99 1.32 1.98 2 3 C0.68 4.32 -0.64 5.64 -2 7 C-2.66 5.35 -3.32 3.7 -4 2 C-2.68 1.34 -1.36 0.68 0 0 Z " fill="#43598A" transform="translate(125,134)"/>
<path d="M0 0 C1.65 0 3.3 0 5 0 C4.6875 1.875 4.6875 1.875 4 4 C3.01 4.66 2.02 5.32 1 6 C0 3 0 3 0 0 Z " fill="#2D4C89" transform="translate(89,81)"/>
<path d="M0 0 C0.66 1.32 1.32 2.64 2 4 C1.01 5.485 1.01 5.485 0 7 C-0.99 7 -1.98 7 -3 7 C-1.125 2.25 -1.125 2.25 0 0 Z " fill="#7289AD" transform="translate(114,74)"/>
<path d="M0 0 C5.75 2.625 5.75 2.625 8 6 C6.02 5.34 4.04 4.68 2 4 C2 3.34 2 2.68 2 2 C1.34 2 0.68 2 0 2 C0 1.34 0 0.68 0 0 Z " fill="#657EA5" transform="translate(21,184)"/>
<path d="M0 0 C2.475 0.99 2.475 0.99 5 2 C4.67 2.99 4.34 3.98 4 5 C3.01 5 2.02 5 1 5 C0.67 3.35 0.34 1.7 0 0 Z " fill="#426198" transform="translate(128,123)"/>
<path d="M0 0 C0.99 0 1.98 0 3 0 C2.34 2.31 1.68 4.62 1 7 C0.34 6.34 -0.32 5.68 -1 5 C-0.625 2.375 -0.625 2.375 0 0 Z " fill="#58729D" transform="translate(12,20)"/>
<path d="M0 0 C2.625 0.375 2.625 0.375 5 1 C2.37352812 2.75098126 -0.28775382 4.38731308 -3 6 C-2.42655063 3.13275314 -2.1385485 2.1385485 0 0 Z " fill="#5E779F" transform="translate(22,10)"/>
</svg>
